<svg width="16" height="16" viewBox="0 0 16 16" fill="none" xmlns="http://www.w3.org/2000/svg">
  <g transform="translate(2.5, 1.5)">
    <path d="M7.5 5.3C7.5 5.80922 7.28929 6.29758 6.91421 6.65765C6.53914 7.01772 6.03043 7.22 5.5 7.22C4.96957 7.22 4.46086 7.01772 4.08579 6.65765C3.71071 6.29758 3.5 5.80922 3.5 5.3C3.5 4.79078 3.71071 4.30242 4.08579 3.94235C4.46086 3.58228 4.96957 3.38 5.5 3.38C6.03043 3.38 6.53914 3.58228 6.91421 3.94235C7.28929 4.30242 7.5 4.79078 7.5 5.3Z" stroke="#3A3943" stroke-linecap="round" stroke-linejoin="round"/>
    <path d="M10.5 5.3C10.5 9.87088 5.5 12.5 5.5 12.5C5.5 12.5 0.5 9.87088 0.5 5.3C0.5 4.02696 1.02678 2.80606 1.96447 1.90589C2.90215 1.00571 4.17392 0.5 5.5 0.5C6.82608 0.5 8.09785 1.00571 9.03553 1.90589C9.97322 2.80606 10.5 4.02696 10.5 5.3Z" stroke="#3A3943" stroke-linecap="round" stroke-linejoin="round"/>
  </g>
</svg>
