<svg width="16" height="16" viewBox="0 0 16 16" fill="none" xmlns="http://www.w3.org/2000/svg">
  <path d="M14.7708 4.5V11.5C14.7708 11.8978 14.6062 12.2794 14.3132 12.5607C14.0202 12.842 13.6227 13 13.2083 13H2.79167C2.37727 13 1.97984 12.842 1.68681 12.5607C1.39379 12.2794 1.22917 11.8978 1.22917 11.5V4.5M1.22917 4.5V4.66267C1.22914 4.91876 1.29741 5.1706 1.42748 5.3942C1.55755 5.61779 1.74508 5.80569 1.97222 5.94L7.18055 9.016C7.42694 9.16169 7.71063 9.23883 8 9.23883C8.28937 9.23883 8.57306 9.16169 8.81944 9.016L14.0278 5.93933C14.2549 5.80502 14.4425 5.61712 14.5725 5.39353C14.7026 5.16994 14.7709 4.9181 14.7708 4.662V4.5C14.7708 4.10218 14.6062 3.72064 14.3132 3.43934C14.0202 3.15804 13.6227 3 13.2083 3H2.79167C2.37727 3 1.97984 3.15804 1.68681 3.43934C1.39379 3.72064 1.22917 4.10218 1.22917 4.5Z" stroke="#3A3943" stroke-linecap="round" stroke-linejoin="round"/>
</svg>
