<svg width="16" height="16" viewBox="0 0 16 16" fill="none" xmlns="http://www.w3.org/2000/svg">
<g id="kleber-icon" transform="translate(1.38885, 1)">
<path id="Vector" d="M6.59003 1.86062C7.07507 1.86062 7.46827 1.44413 7.46827 0.930374C7.46827 0.416615 7.07507 0.000130653 6.59003 0.000130653C6.105 0.000130653 5.7118 0.416615 5.7118 0.930374C5.7118 1.44413 6.105 1.86062 6.59003 1.86062Z" fill="#4D4DFF"/>
<path id="Vector_2" d="M10.6465 3.62256C11.1316 3.62256 11.5249 3.20598 11.5249 2.69209C11.5249 2.17821 11.1316 1.76163 10.6465 1.76163C10.1613 1.76163 9.76803 2.17821 9.76803 2.69209C9.76803 3.20598 10.1613 3.62256 10.6465 3.62256Z" fill="#4D4DFF"/>
<path id="Vector_3" d="M2.54675 3.65035C3.03202 3.65035 3.4254 3.23366 3.4254 2.71966C3.4254 2.20566 3.03202 1.78897 2.54675 1.78897C2.06149 1.78897 1.6681 2.20566 1.6681 2.71966C1.6681 3.23366 2.06149 3.65035 2.54675 3.65035Z" fill="#4D4DFF"/>
<path id="Vector_4" d="M5.26783 4.20582C5.62106 4.20582 5.90742 3.90251 5.90742 3.52835C5.90742 3.1542 5.62106 2.85089 5.26783 2.85089C4.91459 2.85089 4.62824 3.1542 4.62824 3.52835C4.62824 3.90251 4.91459 4.20582 5.26783 4.20582Z" fill="#7E7EFF"/>
<path id="Vector_5" d="M7.9773 4.21835C8.33053 4.21835 8.61689 3.91504 8.61689 3.54088C8.61689 3.16673 8.33053 2.86342 7.9773 2.86342C7.62406 2.86342 7.33771 3.16673 7.33771 3.54088C7.33771 3.91504 7.62406 4.21835 7.9773 4.21835Z" fill="#7E7EFF"/>
<path id="Vector_6" d="M3.34361 6.22526C3.69696 6.22526 3.9834 5.92185 3.9834 5.54757C3.9834 5.1733 3.69696 4.86989 3.34361 4.86989C2.99026 4.86989 2.70381 5.1733 2.70381 5.54757C2.70381 5.92185 2.99026 6.22526 3.34361 6.22526Z" fill="#7E7EFF"/>
<path id="Vector_7" d="M9.88464 6.25558C10.2379 6.25558 10.5242 5.95227 10.5242 5.57812C10.5242 5.20396 10.2379 4.90065 9.88464 4.90065C9.5314 4.90065 9.24505 5.20396 9.24505 5.57812C9.24505 5.95227 9.5314 6.25558 9.88464 6.25558Z" fill="#7E7EFF"/>
<path id="Vector_8" d="M6.60374 5.93782C6.85155 5.93782 7.05245 5.72502 7.05245 5.46253C7.05245 5.20004 6.85155 4.98724 6.60374 4.98724C6.35592 4.98724 6.15502 5.20004 6.15502 5.46253C6.15502 5.72502 6.35592 5.93782 6.60374 5.93782Z" fill="#B2B2FF"/>
<path id="Vector_9" d="M11.4585 6.9893C11.4594 7.5105 11.8546 7.93229 12.3412 7.93139C12.8279 7.93049 13.2217 7.50724 13.2208 6.98604C13.2199 6.46484 12.8247 6.04305 12.3381 6.04395C11.8514 6.04485 11.4576 6.4681 11.4585 6.9893Z" fill="#4D4DFF"/>
<path id="Vector_10" d="M0.878478 7.94427C1.36363 7.94427 1.75692 7.52768 1.75692 7.0138C1.75692 6.49992 1.36363 6.08334 0.878478 6.08334C0.393327 6.08334 3.48591e-05 6.49992 3.48591e-05 7.0138C3.48591e-05 7.52768 0.393327 7.94427 0.878478 7.94427Z" fill="#4D4DFF"/>
<path id="Vector_11" d="M8.06217 7.47516C8.31126 7.47516 8.51318 7.26128 8.51318 6.99744C8.51318 6.73361 8.31126 6.51972 8.06217 6.51972C7.81309 6.51972 7.61117 6.73361 7.61117 6.99744C7.61117 7.26128 7.81309 7.47516 8.06217 7.47516Z" fill="#B2B2FF"/>
<path id="Vector_12" d="M5.1565 7.47897C5.4042 7.47897 5.60501 7.26628 5.60501 7.0039C5.60501 6.74153 5.4042 6.52884 5.1565 6.52884C4.9088 6.52884 4.708 6.74153 4.708 7.0039C4.708 7.26628 4.9088 7.47897 5.1565 7.47897Z" fill="#B2B2FF"/>
<path id="Vector_13" d="M3.32993 9.09539C3.68328 9.09539 3.96973 8.79198 3.96973 8.4177C3.96973 8.04342 3.68328 7.74001 3.32993 7.74001C2.97658 7.74001 2.69014 8.04342 2.69014 8.4177C2.69014 8.79198 2.97658 9.09539 3.32993 9.09539Z" fill="#7E7EFF"/>
<path id="Vector_14" d="M9.87337 9.13436C10.2286 9.13436 10.5165 8.82937 10.5165 8.45314C10.5165 8.07691 10.2286 7.77192 9.87337 7.77192C9.51818 7.77192 9.23024 8.07691 9.23024 8.45314C9.23024 8.82937 9.51818 9.13436 9.87337 9.13436Z" fill="#7E7EFF"/>
<path id="Vector_15" d="M6.61099 9.0162C6.85904 9.0162 7.06012 8.8032 7.06012 8.54047C7.06012 8.27773 6.85904 8.06474 6.61099 8.06474C6.36294 8.06474 6.16186 8.27773 6.16186 8.54047C6.16186 8.8032 6.36294 9.0162 6.61099 9.0162Z" fill="#B2B2FF"/>
<path id="Vector_16" d="M5.23593 11.1356C5.58916 11.1356 5.87551 10.8323 5.87551 10.4581C5.87551 10.084 5.58916 9.78066 5.23593 9.78066C4.88269 9.78066 4.59634 10.084 4.59634 10.4581C4.59634 10.8323 4.88269 11.1356 5.23593 11.1356Z" fill="#7E7EFF"/>
<path id="Vector_17" d="M7.94426 11.1527C8.29749 11.1527 8.58384 10.8494 8.58384 10.4752C8.58384 10.1011 8.29749 9.79775 7.94426 9.79775C7.59102 9.79775 7.30467 10.1011 7.30467 10.4752C7.30467 10.8494 7.59102 11.1527 7.94426 11.1527Z" fill="#7E7EFF"/>
<path id="Vector_18" d="M10.6645 12.2222C11.1495 12.2222 11.5427 11.8058 11.5427 11.292C11.5427 10.7782 11.1495 10.3618 10.6645 10.3618C10.1795 10.3618 9.78626 10.7782 9.78626 11.292C9.78626 11.8058 10.1795 12.2222 10.6645 12.2222Z" fill="#4D4DFF"/>
<path id="Vector_19" d="M2.5625 12.2307C3.04765 12.2307 3.44094 11.8141 3.44094 11.3002C3.44094 10.7863 3.04765 10.3697 2.5625 10.3697C2.07735 10.3697 1.68405 10.7863 1.68405 11.3002C1.68405 11.8141 2.07735 12.2307 2.5625 12.2307Z" fill="#4D4DFF"/>
<path id="Vector_20" d="M6.61417 14.0001C7.09932 14.0001 7.49261 13.5835 7.49261 13.0697C7.49261 12.5558 7.09932 12.1392 6.61417 12.1392C6.12902 12.1392 5.73573 12.5558 5.73573 13.0697C5.73573 13.5835 6.12902 14.0001 6.61417 14.0001Z" fill="#4D4DFF"/>
</g>
</svg>