<svg preserveAspectRatio="xMidYMid meet" width="100%" height="100%" overflow="visible" style="display: block;" viewBox="0 0 141.066 13.8505" fill="none" xmlns="http://www.w3.org/2000/svg">
<g id="KleberShowcase">
<path id="Vector" d="M136.791 13.8505C135.92 13.8505 135.148 13.6451 134.476 13.2345C133.817 12.8238 133.294 12.2514 132.908 11.5172C132.535 10.7705 132.348 9.89942 132.348 8.90388C132.348 7.90834 132.535 7.04346 132.908 6.30925C133.282 5.57504 133.804 5.00882 134.476 4.6106C135.161 4.19994 135.945 3.99461 136.828 3.99461C137.737 3.99461 138.502 4.19994 139.124 4.6106C139.759 5.02127 140.238 5.55637 140.562 6.21592C140.898 6.87546 141.066 7.59723 141.066 8.38122C141.066 8.50566 141.066 8.63633 141.066 8.77322C141.066 8.89766 141.059 9.04699 141.047 9.22121H133.338V8.11989H139.796C139.771 7.16168 139.473 6.42125 138.9 5.89859C138.34 5.37593 137.631 5.1146 136.772 5.1146C136.212 5.1146 135.69 5.24526 135.204 5.50659C134.731 5.75548 134.346 6.12881 134.047 6.62658C133.761 7.1119 133.618 7.7279 133.618 8.47455V8.95988C133.618 9.80609 133.767 10.5092 134.066 11.0692C134.364 11.6292 134.756 12.0461 135.242 12.3198C135.739 12.5936 136.256 12.7305 136.791 12.7305C137.5 12.7305 138.085 12.5749 138.546 12.2638C139.006 11.9403 139.336 11.4985 139.535 10.9385H140.823C140.661 11.4861 140.4 11.9838 140.039 12.4318C139.69 12.8798 139.242 13.2283 138.695 13.4772C138.147 13.726 137.513 13.8505 136.791 13.8505Z" fill="var(--fill-0, black)"/>
<path id="Vector_2" d="M127.157 13.8505C126.41 13.8505 125.751 13.726 125.178 13.4772C124.618 13.2283 124.164 12.8736 123.816 12.4132C123.48 11.9403 123.274 11.3803 123.2 10.7332H124.544C124.618 11.0941 124.761 11.4238 124.973 11.7225C125.197 12.0212 125.496 12.2638 125.869 12.4505C126.242 12.6247 126.684 12.7118 127.194 12.7118C127.667 12.7118 128.053 12.6434 128.352 12.5065C128.663 12.3572 128.893 12.1643 129.042 11.9278C129.204 11.679 129.285 11.4052 129.285 11.1065C129.285 10.6959 129.185 10.3785 128.986 10.1545C128.8 9.91809 128.526 9.74387 128.165 9.63187C127.804 9.51987 127.368 9.4141 126.858 9.31454C126.435 9.23988 126.031 9.14032 125.645 9.01588C125.259 8.89144 124.911 8.72966 124.6 8.53055C124.301 8.33144 124.065 8.08256 123.89 7.78389C123.716 7.47279 123.629 7.1119 123.629 6.70124C123.629 6.16614 123.76 5.69948 124.021 5.30126C124.295 4.8906 124.681 4.57327 125.178 4.34927C125.676 4.11283 126.261 3.99461 126.933 3.99461C127.891 3.99461 128.675 4.23728 129.285 4.7226C129.895 5.19549 130.249 5.89237 130.349 6.81324H129.042C128.992 6.30303 128.781 5.89859 128.408 5.59993C128.034 5.30126 127.53 5.15193 126.896 5.15193C126.273 5.15193 125.794 5.2826 125.458 5.54393C125.135 5.79281 124.973 6.13503 124.973 6.57058C124.973 6.84435 125.06 7.08079 125.234 7.2799C125.409 7.47901 125.664 7.65323 126 7.80256C126.348 7.93945 126.771 8.05767 127.269 8.15722C127.866 8.26922 128.414 8.41855 128.912 8.60522C129.422 8.77944 129.832 9.05321 130.144 9.42654C130.467 9.78742 130.629 10.3039 130.629 10.9759C130.641 11.5358 130.504 12.0336 130.218 12.4692C129.932 12.9047 129.528 13.2469 129.005 13.4958C128.482 13.7323 127.866 13.8505 127.157 13.8505Z" fill="var(--fill-0, black)"/>
<path id="Vector_3" d="M116.979 13.8505C116.22 13.8505 115.585 13.7136 115.075 13.4398C114.577 13.166 114.204 12.8114 113.955 12.3758C113.719 11.9403 113.6 11.4612 113.6 10.9385C113.6 10.2914 113.762 9.74387 114.086 9.29587C114.422 8.84788 114.888 8.51189 115.486 8.28789C116.083 8.06389 116.78 7.95189 117.576 7.95189H120.115C120.115 7.34212 120.022 6.82569 119.835 6.40258C119.648 5.97947 119.375 5.66215 119.014 5.45059C118.653 5.2266 118.199 5.1146 117.651 5.1146C117.016 5.1146 116.469 5.27637 116.008 5.59993C115.548 5.92348 115.262 6.39636 115.15 7.01857H113.787C113.862 6.35903 114.086 5.80525 114.459 5.35726C114.845 4.90927 115.318 4.57327 115.878 4.34927C116.438 4.11283 117.029 3.99461 117.651 3.99461C118.522 3.99461 119.231 4.16261 119.779 4.49861C120.327 4.82216 120.737 5.27015 121.011 5.84259C121.285 6.41502 121.422 7.07457 121.422 7.82123V13.6265H120.227L120.152 11.9092C120.04 12.1705 119.885 12.4194 119.686 12.6558C119.499 12.8923 119.275 13.0976 119.014 13.2718C118.765 13.446 118.472 13.5829 118.136 13.6825C117.8 13.7945 117.415 13.8505 116.979 13.8505ZM117.128 12.7118C117.589 12.7118 117.999 12.6185 118.36 12.4318C118.734 12.2327 119.051 11.9776 119.312 11.6665C119.574 11.3554 119.773 11.007 119.91 10.6212C120.047 10.223 120.115 9.81231 120.115 9.38921V9.05321H117.67C117.01 9.05321 116.481 9.1341 116.083 9.29587C115.685 9.45765 115.399 9.67542 115.224 9.9492C115.05 10.223 114.963 10.5403 114.963 10.9012C114.963 11.2621 115.044 11.5794 115.206 11.8532C115.368 12.1145 115.61 12.3261 115.934 12.4878C116.27 12.6372 116.668 12.7118 117.128 12.7118Z" fill="var(--fill-0, black)"/>
<path id="Vector_4" d="M107.786 13.8505C106.915 13.8505 106.137 13.6451 105.453 13.2345C104.769 12.8238 104.227 12.2514 103.829 11.5172C103.431 10.7705 103.232 9.91187 103.232 8.94121C103.232 7.93323 103.431 7.06835 103.829 6.34658C104.227 5.61237 104.769 5.03993 105.453 4.62927C106.15 4.20617 106.928 3.99461 107.786 3.99461C108.881 3.99461 109.79 4.28083 110.512 4.85327C111.246 5.41326 111.712 6.15992 111.912 7.09324H110.605C110.468 6.47102 110.138 5.99192 109.616 5.65592C109.105 5.30748 108.489 5.13326 107.768 5.13326C107.208 5.13326 106.685 5.27637 106.2 5.56259C105.714 5.83637 105.322 6.25325 105.024 6.81324C104.725 7.37323 104.576 8.08256 104.576 8.94121C104.576 9.57587 104.663 10.1296 104.837 10.6025C105.011 11.0754 105.248 11.4736 105.546 11.7972C105.845 12.1083 106.187 12.3447 106.573 12.5065C106.959 12.6683 107.357 12.7492 107.768 12.7492C108.241 12.7492 108.67 12.6745 109.056 12.5252C109.454 12.3634 109.79 12.1332 110.064 11.8345C110.337 11.5358 110.518 11.175 110.605 10.7519H111.912C111.725 11.6603 111.264 12.4069 110.53 12.9918C109.796 13.5643 108.881 13.8505 107.786 13.8505Z" fill="var(--fill-0, black)"/>
<path id="Vector_5" d="M92.1715 13.6265L89.4089 4.21861H90.7342L92.9742 12.2638H92.7129L95.1395 4.21861H96.6328L99.0595 12.2638H98.7981L101.038 4.21861H102.363L99.6008 13.6265H98.2755L95.7555 5.20793H96.0168L93.4969 13.6265H92.1715Z" fill="var(--fill-0, black)"/>
<path id="Vector_6" d="M83.9152 13.8505C83.0565 13.8505 82.2787 13.6514 81.5819 13.2532C80.8974 12.8425 80.3561 12.2701 79.9579 11.5358C79.5597 10.7892 79.3606 9.92431 79.3606 8.94121C79.3606 7.92078 79.5597 7.04346 79.9579 6.30925C80.3685 5.57504 80.9223 5.00882 81.6192 4.6106C82.3161 4.19994 83.0938 3.99461 83.9525 3.99461C84.8485 3.99461 85.6387 4.19994 86.3231 4.6106C87.0076 5.00882 87.5489 5.57504 87.9471 6.30925C88.3453 7.04346 88.5444 7.92078 88.5444 8.94121C88.5444 9.92431 88.3391 10.7892 87.9284 11.5358C87.5302 12.2701 86.9827 12.8425 86.2858 13.2532C85.6014 13.6514 84.8111 13.8505 83.9152 13.8505ZM83.9338 12.7305C84.5187 12.7305 85.0538 12.5874 85.5391 12.3012C86.0369 12.0149 86.4351 11.5918 86.7338 11.0319C87.0449 10.4594 87.2004 9.75631 87.2004 8.92255C87.2004 8.07634 87.0511 7.37323 86.7525 6.81324C86.4538 6.25325 86.0556 5.83637 85.5578 5.56259C85.0725 5.27637 84.5374 5.13326 83.9525 5.13326C83.3925 5.13326 82.8636 5.27637 82.3658 5.56259C81.8681 5.84881 81.4636 6.27192 81.1525 6.83191C80.8539 7.37946 80.7045 8.07634 80.7045 8.92255C80.7045 9.75631 80.8539 10.4594 81.1525 11.0319C81.4512 11.5918 81.8432 12.0149 82.3285 12.3012C82.8263 12.5874 83.3614 12.7305 83.9338 12.7305Z" fill="var(--fill-0, black)"/>
<path id="Vector_7" d="M69.4216 13.6265V0.186664H70.7282V5.89859C71.0518 5.30126 71.4998 4.8346 72.0722 4.49861C72.6446 4.16261 73.2731 3.99461 73.9575 3.99461C74.6668 3.99461 75.2828 4.13772 75.8055 4.42394C76.3406 4.71016 76.7512 5.14571 77.0375 5.73059C77.3361 6.31547 77.4855 7.06213 77.4855 7.97056V13.6265H76.1975V8.11989C76.1975 7.1119 75.9859 6.36525 75.5628 5.87992C75.1522 5.38215 74.5424 5.13326 73.7335 5.13326C73.1735 5.13326 72.6633 5.27015 72.2029 5.54393C71.7549 5.8177 71.394 6.21592 71.1202 6.73858C70.8589 7.24879 70.7282 7.88345 70.7282 8.64255V13.6265H69.4216Z" fill="var(--fill-0, black)"/>
<path id="Vector_8" d="M63.0531 13.8505C62.0949 13.8505 61.2611 13.6763 60.5518 13.3278C59.8549 12.9794 59.3198 12.4941 58.9465 11.8718C58.5732 11.2372 58.3865 10.5154 58.3865 9.70654H59.7491C59.7491 10.2541 59.8736 10.7581 60.1225 11.2185C60.3714 11.679 60.7385 12.0523 61.2238 12.3385C61.7091 12.6123 62.3189 12.7492 63.0531 12.7492C63.7002 12.7492 64.2415 12.6434 64.6771 12.4318C65.1251 12.2078 65.4673 11.9154 65.7037 11.5545C65.9402 11.1936 66.0584 10.783 66.0584 10.3225C66.0584 9.77498 65.9402 9.33321 65.7037 8.99721C65.4797 8.66122 65.1686 8.38744 64.7704 8.17589C64.3722 7.96434 63.918 7.78389 63.4078 7.63456C62.91 7.47279 62.3811 7.29857 61.8211 7.1119C60.8131 6.76346 60.0727 6.33414 59.5998 5.82392C59.1269 5.31371 58.8843 4.66038 58.8718 3.86395C58.8718 3.17951 59.0274 2.57597 59.3385 2.05331C59.662 1.5182 60.1287 1.10132 60.7385 0.802655C61.3482 0.491549 62.07 0.335996 62.9038 0.335996C63.7126 0.335996 64.4158 0.491549 65.0131 0.802655C65.6228 1.10132 66.0957 1.52442 66.4317 2.07197C66.7677 2.60708 66.9357 3.22307 66.9357 3.91995H65.5917C65.5917 3.52173 65.486 3.13596 65.2744 2.76263C65.0753 2.37686 64.7704 2.06575 64.3597 1.82931C63.9615 1.58042 63.4513 1.45598 62.8291 1.45598C62.3189 1.45598 61.8647 1.54931 61.4665 1.73598C61.0807 1.9102 60.7758 2.17153 60.5518 2.51997C60.3278 2.85596 60.2158 3.25418 60.2158 3.71462C60.2158 4.16261 60.3154 4.52972 60.5145 4.81594C60.7136 5.10215 60.9936 5.33859 61.3545 5.52526C61.7153 5.71192 62.1384 5.88614 62.6238 6.04792C63.1091 6.19725 63.6504 6.37147 64.2477 6.57058C64.8575 6.78213 65.3989 7.03724 65.8717 7.3359C66.3446 7.63456 66.7179 8.02034 66.9917 8.49322C67.2655 8.95366 67.4024 9.53854 67.4024 10.2479C67.4024 10.8576 67.2406 11.4425 66.9171 12.0025C66.6059 12.5501 66.1268 12.998 65.4797 13.3465C64.8326 13.6825 64.0238 13.8505 63.0531 13.8505Z" fill="var(--fill-0, black)"/>
<path id="Vector_9" d="M57.5489 6.57058C57.3435 6.51458 57.0449 6.45858 56.7835 6.45858C54.8796 6.45858 53.6849 7.5599 53.6849 10.2479V13.6265H50.8849V4.18128H53.6289V5.97325H53.6662C53.9276 5.30126 54.4689 4.75994 55.0849 4.44261C55.5702 4.18128 56.1115 4.05061 56.6342 4.05061C57.0262 4.05061 57.3062 4.08794 57.5489 4.16261V6.57058Z" fill="var(--fill-0, black)"/>
<path id="Vector_10" d="M49.4666 10.9759C48.6826 13.0105 46.6293 13.8318 44.6133 13.8318C41.4774 13.8318 39.6294 11.9092 39.6294 9.01588C39.6294 6.01058 41.5334 3.95728 44.7626 3.95728C47.8426 3.95728 49.7279 6.15992 49.5413 9.51987H42.4293C42.6347 10.9759 43.4933 11.7785 44.8746 11.7785C46.0133 11.7785 46.8533 11.3492 47.1893 10.2852L49.4666 10.9759ZM42.504 7.80256H46.7973C46.6106 6.51458 45.7893 5.93592 44.7066 5.93592C43.568 5.93592 42.7653 6.57058 42.504 7.80256Z" fill="var(--fill-0, black)"/>
<path id="Vector_11" d="M34.1502 3.95728C36.6515 3.95728 38.7235 5.69326 38.7235 8.90388C38.7235 12.1145 36.7262 13.8505 34.1502 13.8505C32.5076 13.8505 31.4249 13.2532 30.9023 12.5252H30.8836L30.5476 13.6265H28.3263V0H31.1262V5.30126C31.7049 4.51727 32.8996 3.95728 34.1502 3.95728ZM31.1076 9.12788C31.1076 10.6212 32.1156 11.7972 33.5156 11.7972C34.9529 11.7972 35.8489 10.5279 35.8489 8.88521C35.8489 7.1679 34.8969 6.01059 33.5342 6.01059C32.1156 6.01059 31.1076 7.2239 31.1076 8.66122V9.12788Z" fill="var(--fill-0, black)"/>
<path id="Vector_12" d="M26.9079 10.9759C26.1239 13.0105 24.0706 13.8318 22.0547 13.8318C18.9187 13.8318 17.0707 11.9092 17.0707 9.01588C17.0707 6.01058 18.9747 3.95728 22.204 3.95728C25.284 3.95728 27.1693 6.15992 26.9826 9.51987H19.8707C20.076 10.9759 20.9347 11.7785 22.316 11.7785C23.4546 11.7785 24.2946 11.3492 24.6306 10.2852L26.9079 10.9759ZM19.9454 7.80256H24.2386C24.052 6.51458 23.2306 5.93592 22.148 5.93592C21.0093 5.93592 20.2067 6.57058 19.9454 7.80256Z" fill="var(--fill-0, black)"/>
<path id="Vector_13" d="M12.9134 13.6265V0H15.7133V13.6265H12.9134Z" fill="var(--fill-0, black)"/>
<path id="Vector_14" d="M0 0H2.79996V5.95459L8.26922 0H11.6105L6.40258 5.52526L11.8905 13.6265H8.45589L4.46127 7.59723L2.79996 9.35187V13.6265H0V0Z" fill="var(--fill-0, black)"/>
</g>
</svg>
