<svg width="91" height="14" viewBox="0 0 91 14" fill="none" xmlns="http://www.w3.org/2000/svg">
<path d="M1.94316 9.62315C3.07201 11.0851 4.2934 11.6033 5.95892 11.6033C7.93904 11.6033 8.66077 10.8075 8.66077 9.88224C8.66077 8.99396 8.08709 8.64235 6.38455 8.36476L4.07133 7.99464C1.7581 7.62453 0.314647 6.51418 0.314647 4.23796C0.314647 1.53611 2.75741 0.000132235 5.64432 0.000132235C7.67996 0.000132235 9.82663 0.684847 11.1405 2.62796L9.21594 4.14543C8.23513 2.85003 6.93973 2.33186 5.62581 2.33186C4.10834 2.33186 3.035 3.01658 3.035 4.0344C3.035 4.95969 3.55316 5.29279 5.01512 5.51486L7.12479 5.84797C9.60457 6.23659 11.3811 7.08786 11.3811 9.62315C11.3811 12.362 9.16042 13.9535 5.8849 13.9535C3.20155 13.9535 1.61005 13.3983 4.79453e-05 11.2887L1.94316 9.62315ZM12.6217 0.222202H15.3976V5.44084H15.4161C15.9528 4.6636 16.9336 4.14543 18.2845 4.14543C20.6162 4.14543 21.9117 5.45935 21.9117 7.8651V13.7314H19.1358V8.25372C19.1358 7.05085 18.5621 6.36613 17.4518 6.36613C16.2674 6.36613 15.3976 7.16188 15.3976 8.71637V13.7314H12.6217V0.222202ZM28.1551 13.9535C25.0276 13.9535 22.9919 12.0104 22.9919 9.04947C22.9919 6.08854 25.0276 4.14543 28.1551 4.14543C31.2825 4.14543 33.3182 6.08854 33.3182 9.04947C33.3182 12.0104 31.2825 13.9535 28.1551 13.9535ZM25.8418 9.04947C25.8418 10.7705 26.6746 11.9549 28.1551 11.9549C29.6355 11.9549 30.4683 10.7705 30.4683 9.04947C30.4683 7.32843 29.6355 6.14406 28.1551 6.14406C26.6746 6.14406 25.8418 7.32843 25.8418 9.04947ZM46.5938 4.3675H49.3141L46.5753 13.7314H43.2627L41.4122 7.30993H41.3751L39.4135 13.7314H36.212L33.4547 4.3675H36.3601L38.0811 11.1036H38.1181L40.1723 4.3675H42.7631L44.7617 11.1036H44.8172L46.5938 4.3675ZM59.4063 10.2338C59.0177 12.288 57.4077 13.935 54.4097 13.935C51.3748 13.935 49.4502 11.9919 49.4502 9.17902C49.4502 6.07004 51.5228 4.14543 54.5208 4.14543C57.0561 4.14543 58.8881 5.45935 59.3323 7.80959L56.871 8.21671C56.5749 6.93981 55.9642 6.18107 54.6688 6.18107C53.3364 6.18107 52.3001 7.08786 52.3001 9.06798C52.3001 11.0111 53.2624 11.8994 54.6873 11.8994C56.1493 11.8994 56.6119 10.9926 56.8155 9.91925L59.4063 10.2338ZM63.2914 13.935C61.2742 13.935 59.9973 12.7876 59.9973 11.3442C59.9973 9.84522 61.1632 9.17902 62.6067 8.75338L66.6594 7.56901C66.6039 6.5882 65.8082 6.12556 64.8829 6.12556C63.9206 6.12556 62.8287 6.53268 62.181 8.08717L60.0158 7.23591C60.9967 4.86716 62.9398 4.14543 65.0864 4.14543C67.9178 4.14543 69.3798 5.53337 69.3798 7.8466V10.7335C69.3798 11.4552 69.5833 11.7698 70.157 11.7698C70.4161 11.7698 70.7492 11.7143 70.9898 11.6033V13.5649C70.5456 13.7685 70.0645 13.9165 69.2687 13.9165C67.9363 13.9165 67.1406 13.1948 66.9555 12.325H66.8815C66.1783 13.3428 65.0124 13.935 63.2914 13.935ZM62.8102 11.0481C62.8102 11.5293 63.2544 11.8809 64.0686 11.8809C65.3085 11.8809 66.3818 11.3072 66.6594 10.1228V9.23453L63.828 10.1783C63.2359 10.3819 62.8102 10.567 62.8102 11.0481ZM73.0568 10.5855C73.5935 11.4182 74.4817 12.0289 75.9622 12.0289C77.0911 12.0289 77.9608 11.6773 77.9608 11.0111C77.9608 10.4374 77.3131 10.2338 76.5729 10.1598L74.3522 9.95626C73.1308 9.84522 71.4468 9.17902 71.4653 7.19889C71.5023 5.23728 73.2974 4.14543 75.7957 4.14543C77.4797 4.14543 79.1637 4.60808 80.2185 5.959L78.6456 7.27292C77.8498 6.38464 76.8505 6.07004 75.7772 6.07004C74.6853 6.07004 73.9081 6.38464 73.9081 6.95832C73.9081 7.51349 74.4817 7.71706 75.148 7.77257L77.0911 7.95763C78.405 8.08717 80.3851 8.58683 80.3851 10.789C80.3851 12.8617 78.4975 13.9535 75.9067 13.9535C73.4824 13.9535 72.0205 13.1022 71.0952 11.4922L73.0568 10.5855ZM90.6764 11.1036C89.8991 13.1208 87.8635 13.935 85.8648 13.935C82.7559 13.935 80.9238 12.0289 80.9238 9.16051C80.9238 6.18107 82.8114 4.14543 86.0129 4.14543C89.0664 4.14543 90.9354 6.32912 90.7504 9.66017H83.6997C83.9032 11.1036 84.7545 11.8994 86.1239 11.8994C87.2528 11.8994 88.0855 11.4737 88.4187 10.4189L90.6764 11.1036ZM83.7737 7.95763H88.03C87.845 6.68073 87.0307 6.10705 85.9574 6.10705C84.8285 6.10705 84.0328 6.73625 83.7737 7.95763Z" fill="#0B0B0C"/>
</svg>
