<svg preserveAspectRatio="xMidYMid meet" width="100%" height="100%" overflow="visible" style="display: block;" viewBox="0 0 26.4447 28.0002" fill="none" xmlns="http://www.w3.org/2000/svg">
<g id="LogoMark">
<path id="Vector" d="M13.1817 3.72097C14.1517 3.72097 14.9381 2.88805 14.9381 1.86059C14.9381 0.833134 14.1517 0.00021553 13.1817 0.00021553C12.2117 0.00021553 11.4254 0.833134 11.4254 1.86059C11.4254 2.88805 12.2117 3.72097 13.1817 3.72097Z" fill="var(--fill-0, #4D4DFF)" fill-opacity="0.898"/>
<path id="Vector_2" d="M21.2929 7.24573C22.2631 7.24573 23.0496 6.41261 23.0496 5.38491C23.0496 4.35721 22.2631 3.52409 21.2929 3.52409C20.3226 3.52409 19.5361 4.35721 19.5361 5.38491C19.5361 6.41261 20.3226 7.24573 21.2929 7.24573Z" fill="var(--fill-0, #4D4DFF)" fill-opacity="0.898"/>
<path id="Vector_3" d="M5.09233 7.29874C6.0628 7.29874 6.84952 6.46542 6.84952 5.43748C6.84952 4.40953 6.0628 3.57622 5.09233 3.57622C4.12185 3.57622 3.33513 4.40953 3.33513 5.43748C3.33513 6.46542 4.12185 7.29874 5.09233 7.29874Z" fill="var(--fill-0, #4D4DFF)" fill-opacity="0.898"/>
<path id="Vector_4" d="M10.5358 8.41101C11.2422 8.41101 11.8149 7.80442 11.8149 7.05616C11.8149 6.3079 11.2422 5.70131 10.5358 5.70131C9.82935 5.70131 9.25668 6.3079 9.25668 7.05616C9.25668 7.80442 9.82935 8.41101 10.5358 8.41101Z" fill="var(--fill-0, #4D4DFF)" fill-opacity="0.8"/>
<path id="Vector_5" d="M15.9532 8.43579C16.6596 8.43579 17.2323 7.8292 17.2323 7.08094C17.2323 6.33268 16.6596 5.72609 15.9532 5.72609C15.2468 5.72609 14.6741 6.33268 14.6741 7.08094C14.6741 7.8292 15.2468 8.43579 15.9532 8.43579Z" fill="var(--fill-0, #4D4DFF)" fill-opacity="0.8"/>
<path id="Vector_6" d="M6.68762 12.451C7.39427 12.451 7.96713 11.8442 7.96713 11.0957C7.96713 10.3472 7.39427 9.74044 6.68762 9.74044C5.98096 9.74044 5.4081 10.3472 5.4081 11.0957C5.4081 11.8442 5.98096 12.451 6.68762 12.451Z" fill="var(--fill-0, #4D4DFF)" fill-opacity="0.8"/>
<path id="Vector_7" d="M19.7702 12.5082C20.4766 12.5082 21.0493 11.9017 21.0493 11.1534C21.0493 10.4051 20.4766 9.79855 19.7702 9.79855C19.0637 9.79855 18.4911 10.4051 18.4911 11.1534C18.4911 11.9017 19.0637 12.5082 19.7702 12.5082Z" fill="var(--fill-0, #4D4DFF)" fill-opacity="0.8"/>
<path id="Vector_8" d="M13.208 11.8739C13.7036 11.8739 14.1053 11.4483 14.1053 10.9234C14.1053 10.3984 13.7036 9.97286 13.208 9.97286C12.7124 9.97286 12.3106 10.3984 12.3106 10.9234C12.3106 11.4483 12.7124 11.8739 13.208 11.8739Z" fill="var(--fill-0, #4D4DFF)" fill-opacity="0.6"/>
<path id="Vector_9" d="M22.9173 13.9781C22.919 15.0205 23.7094 15.864 24.6826 15.8622C25.6558 15.8604 26.4434 15.014 26.4417 13.9716C26.44 12.9293 25.6496 12.0857 24.6764 12.0875C23.7031 12.0893 22.9156 12.9358 22.9173 13.9781Z" fill="var(--fill-0, #4D4DFF)" fill-opacity="0.898"/>
<path id="Vector_10" d="M1.75687 15.888C2.72712 15.888 3.51365 15.0548 3.51365 14.0271C3.51365 12.9994 2.72712 12.1663 1.75687 12.1663C0.78663 12.1663 9.17098e-05 12.9994 9.17098e-05 14.0271C9.17098e-05 15.0548 0.78663 15.888 1.75687 15.888Z" fill="var(--fill-0, #4D4DFF)" fill-opacity="0.898"/>
<path id="Vector_11" d="M16.1229 14.9495C16.6211 14.9495 17.0249 14.5218 17.0249 13.9941C17.0249 13.4665 16.6211 13.0387 16.1229 13.0387C15.6248 13.0387 15.221 13.4665 15.221 13.9941C15.221 14.5218 15.6248 14.9495 16.1229 14.9495Z" fill="var(--fill-0, #4D4DFF)" fill-opacity="0.6"/>
<path id="Vector_12" d="M10.3126 14.9568C10.8079 14.9568 11.2095 14.5315 11.2095 14.0068C11.2095 13.482 10.8079 13.0567 10.3126 13.0567C9.81719 13.0567 9.41561 13.482 9.41561 14.0068C9.41561 14.5315 9.81719 14.9568 10.3126 14.9568Z" fill="var(--fill-0, #4D4DFF)" fill-opacity="0.6"/>
<path id="Vector_13" d="M6.66027 18.1897C7.36693 18.1897 7.93979 17.5829 7.93979 16.8344C7.93979 16.0859 7.36693 15.4791 6.66027 15.4791C5.95362 15.4791 5.38076 16.0859 5.38076 16.8344C5.38076 17.5829 5.95362 18.1897 6.66027 18.1897Z" fill="var(--fill-0, #4D4DFF)" fill-opacity="0.8"/>
<path id="Vector_14" d="M19.7473 18.2671C20.4577 18.2671 21.0335 17.6571 21.0335 16.9047C21.0335 16.1523 20.4577 15.5424 19.7473 15.5424C19.037 15.5424 18.4611 16.1523 18.4611 16.9047C18.4611 17.6571 19.037 18.2671 19.7473 18.2671Z" fill="var(--fill-0, #4D4DFF)" fill-opacity="0.8"/>
<path id="Vector_15" d="M13.2208 18.0296C13.7168 18.0296 14.119 17.6037 14.119 17.0782C14.119 16.5528 13.7168 16.1268 13.2208 16.1268C12.7247 16.1268 12.3226 16.5528 12.3226 17.0782C12.3226 17.6037 12.7247 18.0296 13.2208 18.0296Z" fill="var(--fill-0, #4D4DFF)" fill-opacity="0.6"/>
<path id="Vector_16" d="M10.4708 22.269C11.1773 22.269 11.7499 21.6624 11.7499 20.9141C11.7499 20.1659 11.1773 19.5593 10.4708 19.5593C9.76441 19.5593 9.19174 20.1659 9.19174 20.9141C9.19174 21.6624 9.76441 22.269 10.4708 22.269Z" fill="var(--fill-0, #4D4DFF)" fill-opacity="0.8"/>
<path id="Vector_17" d="M15.8882 22.3023C16.5947 22.3023 17.1673 21.6957 17.1673 20.9475C17.1673 20.1992 16.5947 19.5926 15.8882 19.5926C15.1818 19.5926 14.6091 20.1992 14.6091 20.9475C14.6091 21.6957 15.1818 22.3023 15.8882 22.3023Z" fill="var(--fill-0, #4D4DFF)" fill-opacity="0.8"/>
<path id="Vector_18" d="M21.3266 24.4404C22.2966 24.4404 23.083 23.6075 23.083 22.58C23.083 21.5526 22.2966 20.7197 21.3266 20.7197C20.3566 20.7197 19.5703 21.5526 19.5703 22.58C19.5703 23.6075 20.3566 24.4404 21.3266 24.4404Z" fill="var(--fill-0, #4D4DFF)" fill-opacity="0.898"/>
<path id="Vector_19" d="M5.12609 24.4584C6.09633 24.4584 6.88287 23.6253 6.88287 22.5976C6.88287 21.5699 6.09633 20.7368 5.12609 20.7368C4.15585 20.7368 3.36931 21.5699 3.36931 22.5976C3.36931 23.6253 4.15585 24.4584 5.12609 24.4584Z" fill="var(--fill-0, #4D4DFF)" fill-opacity="0.898"/>
<path id="Vector_20" d="M13.2283 28.0002C14.1985 28.0002 14.9851 27.1671 14.9851 26.1394C14.9851 25.1117 14.1985 24.2786 13.2283 24.2786C12.258 24.2786 11.4715 25.1117 11.4715 26.1394C11.4715 27.1671 12.258 28.0002 13.2283 28.0002Z" fill="var(--fill-0, #4D4DFF)" fill-opacity="0.898"/>
</g>
</svg>
