<svg width="16" height="16" viewBox="0 0 16 16" fill="none" xmlns="http://www.w3.org/2000/svg">
  <path d="M1.75033 4.76923C1.75033 9.86708 6.05545 14 11.3657 14H12.808C13.1905 14 13.5574 13.8541 13.8279 13.5945C14.0984 13.3348 14.2503 12.9826 14.2503 12.6154V11.7711C14.2503 11.4535 14.0253 11.1766 13.7042 11.0997L10.8689 10.4191C10.5869 10.3514 10.2907 10.4529 10.117 10.6757L9.4952 11.4714C9.31443 11.7028 9.00225 11.8049 8.71956 11.7052C7.67012 11.3348 6.71709 10.7499 5.92647 9.9909C5.13585 9.23191 4.52653 8.317 4.14071 7.30954C4.03686 7.03815 4.14327 6.73846 4.3843 6.56492L5.21315 5.968C5.44584 5.80123 5.55097 5.51631 5.48045 5.24615L4.77148 2.52431C4.73247 2.37458 4.64245 2.24166 4.51574 2.14667C4.38903 2.05167 4.23289 2.00005 4.07212 2H3.19263C2.81011 2 2.44325 2.14588 2.17277 2.40554C1.90228 2.66521 1.75033 3.01739 1.75033 3.38462V4.76923Z" stroke="#3A3943" stroke-linecap="round" stroke-linejoin="round"/>
</svg>
