<svg width="201" height="138" viewBox="0 0 201 138" fill="none" xmlns="http://www.w3.org/2000/svg">
<g clip-path="url(#clip0_79_4093)">
<path d="M85.1946 57.8072C85.1946 57.8072 112.63 10.7912 99.0891 2.02727C82.2172 -8.88987 66.405 20.1776 73.1336 32.2218C79.8621 44.266 76.6492 6.24945 58.6166 10.438C44.5371 13.7014 39.2383 35.7543 85.1946 57.8072Z" fill="white"/>
<path d="M120.773 64.8055C120.773 64.8055 135.205 118.516 186.343 128.054M65.1272 47.2607L18.6663 83.8474C13.2161 88.6415 18.2626 97.4728 25.1594 95.2019L120.268 63.8803" stroke="#767786" stroke-width="21.2003" stroke-miterlimit="10" stroke-linecap="round" stroke-linejoin="round"/>
<path d="M130.832 25.2744L124.591 25.4426C123.195 25.4763 122.589 27.0743 123.615 28.0331L125.584 29.8835" fill="#767786"/>
<path d="M122.236 40.7511C119.494 38.026 119.494 33.8543 122.236 31.432L129.671 24.8716C132.413 22.4493 136.854 22.7016 139.596 25.4267C142.338 28.1518 142.338 32.3235 139.596 34.7458L132.161 41.3062C129.419 43.7285 124.978 43.4761 122.236 40.7511Z" fill="#767786"/>
<path d="M130.462 36.1593L136.097 40.0787C137.779 41.2562 140.084 40.9702 141.244 39.4563C142.388 37.9424 141.951 35.7556 140.269 34.5781L134.634 30.6587L130.462 36.1593Z" fill="#767786"/>
<path d="M119.628 31.1289C119.729 31.3308 119.83 31.5326 119.948 31.7345C121.916 35.1492 126.373 36.5622 129.889 34.9137" stroke="#0B0B0C" stroke-width="1.5143"/>
<path d="M128.342 23.458L128.022 24.2486" stroke="#0B0B0C" stroke-width="1.5143" stroke-linecap="round" stroke-linejoin="round"/>
<path d="M131.908 24.9048L131.589 25.6954" stroke="#0B0B0C" stroke-width="1.5143" stroke-linecap="round" stroke-linejoin="round"/>
<path d="M132.481 67.2948L145.669 116.615L71.2842 115.858C71.2842 115.858 93.3371 85.2097 100.251 77.9933C106.744 71.2479 115.239 61.9288 117.846 60.4148C124.087 56.7982 129.604 55.4357 132.481 67.2948Z" fill="#767786"/>
<path d="M145.752 117.204C145.719 120.786 129.015 123.562 108.409 123.394C87.8191 123.226 71.149 120.181 71.1827 116.598C71.2163 113.015 87.92 110.239 108.526 110.408C129.116 110.576 145.786 113.621 145.752 117.204Z" fill="#0B0B0C"/>
<path d="M81.9316 113.133C102.824 107.918 128.342 111.518 138.839 114.277" stroke="#0B0B0C" stroke-width="1.8106" stroke-miterlimit="10" stroke-linecap="round" stroke-linejoin="round"/>
<path d="M156.635 62.837C158.452 54.0394 169.52 48.8752 181.346 51.3143C193.188 53.7534 201.313 62.8538 199.496 71.6515C197.982 79.0193 189.975 83.8302 180.471 83.7629L167.266 92.5437L173.827 82.9555C162.523 80.2472 154.869 71.3991 156.635 62.837Z" stroke="#0B0B0C" stroke-width="1.5143" stroke-miterlimit="10" stroke-linecap="round" stroke-linejoin="round"/>
<path d="M75.5893 49.5312C75.8417 48.8752 77.0192 45.3763 74.58 42.0625C72.0064 38.5804 70.8793 36.8478 70.5597 35.8722C70.2569 34.9302 70.442 33.9545 71.098 33.0462C71.5354 32.4406 73.1166 31.0612 73.5708 30.7248C74.2773 30.1865 74.5969 29.1604 74.2941 28.3698C74.1595 28.0334 73.739 27.2764 72.4269 27.3773C72.2587 27.3942 72.1073 27.411 71.9559 27.4278C72.0064 27.3773 72.04 27.31 72.04 27.2259C72.1241 26.5363 71.9054 25.0896 70.5261 24.5345C69.7018 24.1981 68.8944 24.2149 68.0365 24.5681C67.9692 24.3495 67.8178 24.0971 67.7337 23.9962C66.859 23.0879 65.917 22.6673 64.9413 22.7346C64.7227 22.7514 64.4872 22.8019 64.2685 22.8692C63.8311 22.4991 61.7621 20.9347 59.6594 22.1627C57.439 23.4579 54.7307 26.469 54.4448 33.4162C54.2597 37.8907 56.2278 43.2232 57.7922 47.4958C58.6333 49.7835 59.3566 51.7685 59.5248 52.9964" fill="#767786"/>
<path d="M64.0835 23.2395C64.0835 23.2395 61.9472 21.2882 59.8613 22.4993" stroke="#0B0B0C" stroke-width="1.5143" stroke-miterlimit="10" stroke-linecap="round" stroke-linejoin="round"/>
<path d="M58.667 32.4912C58.7679 31.9361 59.794 27.9326 61.2911 25.8804C62.8051 23.8282 65.0423 21.8264 67.431 24.2824M62.4182 33.1809C62.4182 33.1809 64.1003 28.7232 65.8161 26.8056C67.5319 24.8879 68.9281 24.3328 70.3579 24.9216C71.8214 25.5103 71.6195 27.1925 71.6195 27.1925" stroke="#0B0B0C" stroke-width="1.5143" stroke-miterlimit="10" stroke-linecap="round" stroke-linejoin="round"/>
<path d="M66.1191 34.392C66.1191 34.392 67.1621 30.1698 68.4741 29.2278C69.7862 28.2858 71.2329 27.3438 72.4608 27.7812C73.8234 28.2858 73.6047 29.5643 73.3187 30.3885C73.1337 30.9268 71.973 32.0707 71.4852 32.7267C70.7282 33.7528 70.5432 34.8798 70.8796 35.9228C71.216 36.9657 71.7039 38.8497 74.2439 42.2981C76.784 45.7465 75.1691 49.464 75.1691 49.464" stroke="#0B0B0C" stroke-width="1.5143" stroke-miterlimit="10" stroke-linecap="round" stroke-linejoin="round"/>
<path d="M141.731 72.5773C141.832 72.325 141.933 72.0726 142.034 71.8203" stroke="#0B0B0C" stroke-width="1.5143" stroke-linecap="round" stroke-linejoin="round"/>
<path d="M143.279 68.9103C150.597 52.3412 161.043 38.5644 173.491 29.0435" stroke="#0B0B0C" stroke-width="1.5143" stroke-linecap="round" stroke-linejoin="round" stroke-dasharray="1.58 3.16"/>
<path d="M174.752 28.1009C174.971 27.9327 175.189 27.7813 175.408 27.6299" stroke="#0B0B0C" stroke-width="1.5143" stroke-linecap="round" stroke-linejoin="round"/>
<path d="M5.84766 47.9502C5.86448 48.2193 5.89812 48.4885 5.93176 48.7576" stroke="#0B0B0C" stroke-width="1.5143" stroke-linecap="round" stroke-linejoin="round"/>
<path d="M6.30176 51.9365C9.93519 76.8491 26.4539 97.775 44.9238 108.204" stroke="#0B0B0C" stroke-width="1.5143" stroke-linecap="round" stroke-linejoin="round" stroke-dasharray="1.6 3.21"/>
<path d="M46.3369 108.979C46.5724 109.113 46.8247 109.231 47.0602 109.365" stroke="#0B0B0C" stroke-width="1.5143" stroke-linecap="round" stroke-linejoin="round"/>
<path d="M21.0716 26.772C19.2548 21.5574 12.9131 22.5162 8.94328 25.3927C9.31336 23.0881 8.876 20.7163 6.47053 19.5893C1.30634 17.2006 -2.4112 23.2732 6.52099 41.2385C6.52099 41.2385 23.1574 32.7773 21.0716 26.772Z" stroke="#0B0B0C" stroke-width="1.5143"/>
<path d="M182.911 26.9401C182.911 26.9401 191.305 16.7295 188.395 14.1054C184.778 10.842 179.866 17.2005 181.01 20.3461C182.154 23.4917 182.844 14.2567 178.369 14.5595C174.87 14.795 172.751 19.8751 182.911 26.9401Z" fill="white"/>
<path d="M186.628 2.43115L185.619 7.14116" stroke="#0B0B0C" stroke-width="1.5143"/>
<path d="M186.628 2.43115L185.619 7.14116" stroke="#0B0B0C" stroke-width="1.5143"/>
<path d="M169.925 7.83105L173.508 11.0608" stroke="#0B0B0C" stroke-width="1.5143"/>
<path d="M166.258 24.9886L170.85 23.5083" stroke="#0B0B0C" stroke-width="1.5143"/>
<path d="M179.295 36.7471L180.287 32.0371" stroke="#0B0B0C" stroke-width="1.5143"/>
<path d="M195.981 31.3474L192.398 28.1177" stroke="#0B0B0C" stroke-width="1.5143"/>
<path d="M199.649 14.1895L195.073 15.6697" stroke="#0B0B0C" stroke-width="1.5143"/>
<path d="M172.515 73.4015C172.515 73.4015 185.047 69.2129 183.971 65.4449C182.642 60.7517 175.106 63.5273 174.399 66.8075C173.693 70.0877 179.193 62.6357 175.24 60.5162C172.145 58.8509 167.654 62.0302 172.515 73.4015Z" fill="white"/>
<path d="M69.4328 102.3L35.1338 145.212L83.5224 141.269L113.438 95.3359L69.4328 102.3Z" fill="#0B0B0C"/>
<path d="M107.937 88.7261L74.8326 127.685L34.5957 137.088" stroke="#ACACB7" stroke-width="1.5143"/>
<path d="M57.4056 96.7998C55.7739 93.8561 57.0692 90.7273 60.2989 89.7853C63.4613 88.8601 67.3134 90.4245 68.9956 93.2673L72.0234 98.7343L66.0182 100.467V100.45C62.8221 101.291 59.0036 99.6763 57.4056 96.7998Z" stroke="#0B0B0C" stroke-width="1.5143"/>
<path d="M77.9279 85.2435C76.2626 82.3333 72.8983 81.7951 70.4255 84.0828C68.0032 86.3032 67.3304 90.4076 68.8779 93.3178L71.9731 98.7511L76.5822 94.5121V94.4953C78.954 92.2075 79.5596 88.1031 77.9279 85.2435Z" stroke="#0B0B0C" stroke-width="1.5143"/>
<path d="M69.4332 102.3L65.4297 93.4018L110.646 86.0508L113.438 95.3362L69.4332 102.3Z" fill="#ACACB7"/>
<path d="M69.4333 102.3L35.1344 145.211L32.4766 136.717L65.4298 93.4014L69.4333 102.3Z" fill="#ACACB7"/>
<path d="M140.336 114.546L82.5371 107.246L134.482 97.0352L185.67 102.233L140.336 114.546Z" fill="#0B0B0C"/>
<path d="M140.335 114.546L139.107 158.198L183.617 138.264L185.669 102.233L140.335 114.546Z" fill="#ACACB7"/>
<path d="M140.336 114.546L139.108 158.198L82.0156 144.522L82.5371 107.246L140.336 114.546Z" fill="#ACACB7"/>
<path d="M139.107 158.198L140.335 114.546" stroke="#0B0B0C" stroke-width="1.5143" stroke-miterlimit="10"/>
<path d="M168.024 117.894C169.184 115.808 171.371 115.438 175.358 114.748C176.838 114.496 178.789 114.462 180.657 114.53C178.47 114.008 175.391 113.672 173.911 113.588C172.246 113.503 170.362 111.973 170.345 110.055C170.328 109.365 170.614 108.726 171.169 108.221C172.296 107.179 174.399 106.724 177.292 106.926C181.7 107.229 187.452 108.911 190.951 110.947C194.585 113.049 196.805 121.241 196.603 127.583C196.402 134.177 189.101 136.095 189.034 136.111C189 136.128 188.95 136.128 188.916 136.128C188.714 136.128 188.529 135.994 188.479 135.792L187.789 133.319C185.838 132.528 181.329 132.226 178.941 132.36C176.081 132.528 174.567 131.368 174.332 130.14C173.995 128.491 175.56 127.482 176.99 126.826C175.206 126.708 173.491 126.54 172.784 126.288C171.775 125.934 170.463 125.077 170.059 123.798C169.891 123.243 169.84 122.402 170.48 121.393C169.487 121.107 168.545 120.383 168.108 119.542C167.788 118.954 167.771 118.365 168.024 117.894Z" fill="#767786"/>
<path d="M186.998 115.489C186.998 115.489 179.462 114.496 175.442 115.186C171.438 115.875 169.47 116.245 168.427 118.113C167.821 119.206 169.453 120.888 171.068 121.09" stroke="#0B0B0C" stroke-width="1.5143" stroke-miterlimit="10" stroke-linecap="round" stroke-linejoin="round"/>
<path d="M187.503 120.131C187.503 120.131 172.683 119.122 171.001 121.41C169.319 123.698 171.522 125.38 172.935 125.868C174.348 126.355 180.286 126.54 180.875 126.557" stroke="#0B0B0C" stroke-width="1.5143" stroke-miterlimit="10" stroke-linecap="round" stroke-linejoin="round"/>
<path d="M187.301 127.062C187.301 127.062 180.387 125.918 177.713 127.012C175.156 128.055 174.567 129.064 174.769 130.056C174.988 131.15 176.468 132.058 178.907 131.907C181.346 131.772 186.208 132.092 188.159 132.983" stroke="#0B0B0C" stroke-width="1.5143" stroke-miterlimit="10" stroke-linecap="round" stroke-linejoin="round"/>
</g>
<defs>
<clipPath id="clip0_79_4093">
<rect width="201" height="138" fill="white"/>
</clipPath>
</defs>
</svg>
