<svg preserveAspectRatio="xMidYMid meet" width="100%" height="100%" overflow="visible" style="display: block;" viewBox="0 0 201 138" fill="none" xmlns="http://www.w3.org/2000/svg">
<g id="DOWNLOAD AS SVG" clip-path="url(#clip0_0_267)">
<path id="Vector" d="M85.1949 57.8075C85.1949 57.8075 112.631 10.7915 99.0895 2.02751C82.2175 -8.88962 66.4053 20.1779 73.1339 32.222C79.8625 44.2662 76.6496 6.2497 58.617 10.4382C44.5374 13.7016 39.2387 35.7545 85.1949 57.8075Z" fill="var(--fill-0, #1F1F7A)"/>
<path id="Vector_2" d="M120.772 64.8055C120.772 64.8055 135.205 118.516 186.342 128.054M65.1269 47.2607L18.6661 83.8474C13.2159 88.6415 18.2623 97.4728 25.1591 95.2019L120.268 63.8803" stroke="var(--stroke-0, #7E7EFF)" stroke-width="21.2003" stroke-miterlimit="10" stroke-linecap="round" stroke-linejoin="round"/>
<path id="Vector_3" d="M130.831 25.2744L124.591 25.4426C123.194 25.4763 122.589 27.0743 123.615 28.0331L125.583 29.8835" fill="var(--fill-0, #7E7EFF)"/>
<g id="Group">
<path id="Vector_4" d="M122.236 40.7508C119.494 38.0257 119.494 33.854 122.236 31.4317L129.671 24.8714C132.413 22.4491 136.853 22.7014 139.595 25.4265C142.337 28.1515 142.337 32.3233 139.595 34.7456L132.16 41.3059C129.418 43.7282 124.978 43.4759 122.236 40.7508Z" fill="var(--fill-0, #7E7EFF)"/>
<path id="Vector_5" d="M130.461 36.1589L136.096 40.0783C137.779 41.2558 140.083 40.9698 141.244 39.4559C142.388 37.9419 141.95 35.7551 140.268 34.5776L134.633 30.6582L130.461 36.1589Z" fill="var(--fill-0, #7E7EFF)"/>
</g>
<g id="Group_2">
<path id="Vector_6" d="M119.628 31.1287C119.729 31.3305 119.83 31.5324 119.948 31.7342C121.916 35.149 126.374 36.562 129.889 34.9135" stroke="var(--stroke-0, #1F1F7A)" stroke-width="1.5143"/>
</g>
<g id="Group_3">
<path id="Vector_7" d="M128.342 23.4578L128.022 24.2484" stroke="var(--stroke-0, #1F1F7A)" stroke-width="1.5143" stroke-linecap="round" stroke-linejoin="round"/>
<path id="Vector_8" d="M131.908 24.9046L131.588 25.6952" stroke="var(--stroke-0, #1F1F7A)" stroke-width="1.5143" stroke-linecap="round" stroke-linejoin="round"/>
</g>
<g id="Group_4">
<path id="Vector_9" d="M132.48 67.2951L145.668 116.616L71.2838 115.859C71.2838 115.859 93.3367 85.21 100.25 77.9936C106.743 71.2482 115.238 61.9291 117.846 60.4152C124.086 56.7986 129.604 55.436 132.48 67.2951Z" fill="var(--fill-0, #7E7EFF)"/>
<path id="Vector_10" d="M145.752 117.204C145.719 120.787 129.015 123.562 108.409 123.394C87.8191 123.226 71.149 120.181 71.1827 116.598C71.2163 113.015 87.92 110.24 108.526 110.408C129.116 110.576 145.786 113.621 145.752 117.204Z" fill="var(--fill-0, #1F1F7A)"/>
<path id="Vector_11" d="M81.9318 113.133C102.824 107.919 128.342 111.518 138.839 114.277" stroke="var(--stroke-0, #1D1D1B)" stroke-width="1.8106" stroke-miterlimit="10" stroke-linecap="round" stroke-linejoin="round"/>
</g>
<path id="Vector_12" d="M156.635 62.8373C158.452 54.0396 169.521 48.8754 181.346 51.3146C193.188 53.7537 201.313 62.8541 199.497 71.6517C197.983 79.0195 189.976 83.8305 180.471 83.7632L167.267 92.544L173.827 82.9557C162.523 80.2475 154.869 71.3994 156.635 62.8373Z" stroke="var(--stroke-0, #080717)" stroke-width="1.5143" stroke-miterlimit="10" stroke-linecap="round" stroke-linejoin="round"/>
<g id="Group_5">
<path id="Vector_13" d="M14.8644 36.6296L11.8702 40.078L8.87598 43.5096L7.39569 39.2033L5.91541 34.897L10.3899 35.7717L14.8644 36.6296Z" fill="var(--fill-0, white)"/>
</g>
<g id="Group_6">
<path id="Vector_14" d="M75.5896 49.5312C75.8419 48.8752 77.0194 45.3763 74.5803 42.0625C72.0066 38.5804 70.8796 36.8478 70.56 35.8722C70.2572 34.9302 70.4422 33.9545 71.0982 33.0462C71.5356 32.4406 73.1168 31.0612 73.571 30.7248C74.2775 30.1865 74.5971 29.1604 74.2943 28.3698C74.1598 28.0334 73.7392 27.2764 72.4271 27.3773C72.2589 27.3942 72.1075 27.411 71.9561 27.4278C72.0066 27.3773 72.0403 27.31 72.0403 27.2259C72.1244 26.5363 71.9057 25.0896 70.5263 24.5345C69.7021 24.1981 68.8946 24.2149 68.0367 24.5681C67.9695 24.3495 67.8181 24.0971 67.734 23.9962C66.8592 23.0879 65.9172 22.6673 64.9416 22.7346C64.7229 22.7514 64.4874 22.8019 64.2687 22.8692C63.8314 22.4991 61.7623 20.9347 59.6597 22.1627C57.4392 23.4579 54.731 26.469 54.445 33.4162C54.26 37.8907 56.2281 43.2232 57.7925 47.4958C58.6335 49.7835 59.3569 51.7685 59.5251 52.9964" fill="var(--fill-0, #7E7EFF)"/>
<path id="Vector_15" d="M64.0835 23.2395C64.0835 23.2395 61.9472 21.2882 59.8613 22.4993" stroke="var(--stroke-0, #1F1F7A)" stroke-width="1.5143" stroke-miterlimit="10" stroke-linecap="round" stroke-linejoin="round"/>
<path id="Vector_16" d="M58.667 32.4911C58.768 31.936 59.7941 27.9325 61.2912 25.8803C62.8051 23.8281 65.0424 21.8263 67.431 24.2822M62.4182 33.1808C62.4182 33.1808 64.1004 28.7231 65.8162 26.8055C67.532 24.8878 68.9281 24.3327 70.358 24.9214C71.8214 25.5102 71.6196 27.1923 71.6196 27.1923" stroke="var(--stroke-0, #1F1F7A)" stroke-width="1.5143" stroke-miterlimit="10" stroke-linecap="round" stroke-linejoin="round"/>
<path id="Vector_17" d="M66.119 34.392C66.119 34.392 67.1619 30.1698 68.474 29.2278C69.7861 28.2858 71.2327 27.3438 72.4607 27.7811C73.8232 28.2858 73.6045 29.5642 73.3186 30.3885C73.1335 30.9267 71.9729 32.0706 71.485 32.7266C70.7281 33.7527 70.543 34.8798 70.8795 35.9227C71.2159 36.9656 71.7037 38.8497 74.2438 42.2981C76.7838 45.7465 75.1689 49.464 75.1689 49.464" stroke="var(--stroke-0, #1F1F7A)" stroke-width="1.5143" stroke-miterlimit="10" stroke-linecap="round" stroke-linejoin="round"/>
</g>
<g id="Group_7">
<path id="Vector_18" d="M141.732 72.5773C141.833 72.3249 141.934 72.0726 142.035 71.8203" stroke="var(--stroke-0, #1F1F7A)" stroke-width="1.5143" stroke-linecap="round" stroke-linejoin="round"/>
<path id="Vector_19" d="M143.279 68.9101C150.597 52.3409 161.043 38.5642 173.491 29.0432" stroke="var(--stroke-0, #1F1F7A)" stroke-width="1.5143" stroke-linecap="round" stroke-linejoin="round" stroke-dasharray="1.58 3.16"/>
<path id="Vector_20" d="M174.752 28.1006C174.971 27.9324 175.19 27.781 175.408 27.6296" stroke="var(--stroke-0, #1F1F7A)" stroke-width="1.5143" stroke-linecap="round" stroke-linejoin="round"/>
</g>
<g id="Group_8">
<path id="Vector_21" d="M5.84802 47.9502C5.86484 48.2193 5.89849 48.4885 5.93213 48.7576" stroke="var(--stroke-0, #1F1F7A)" stroke-width="1.5143" stroke-linecap="round" stroke-linejoin="round"/>
<path id="Vector_22" d="M6.30187 51.9366C9.93531 76.8492 26.454 97.7751 44.924 108.204" stroke="var(--stroke-0, #1F1F7A)" stroke-width="1.5143" stroke-linecap="round" stroke-linejoin="round" stroke-dasharray="1.6 3.21"/>
<path id="Vector_23" d="M46.3369 108.979C46.5724 109.113 46.8247 109.231 47.0602 109.365" stroke="var(--stroke-0, #1F1F7A)" stroke-width="1.5143" stroke-linecap="round" stroke-linejoin="round"/>
</g>
<path id="Vector_24" d="M21.0714 26.772C19.2547 21.5574 12.913 22.5162 8.94316 25.3927C9.31323 23.0881 8.87588 20.7163 6.47041 19.5893C1.30622 17.2006 -2.41133 23.2732 6.52087 41.2385C6.52087 41.2385 23.1573 32.7773 21.0714 26.772Z" stroke="var(--stroke-0, #282D33)" stroke-width="1.5143"/>
<path id="Vector_25" d="M182.911 26.9401C182.911 26.9401 191.305 16.7295 188.394 14.1054C184.778 10.842 179.866 17.2005 181.01 20.3461C182.154 23.4917 182.843 14.2567 178.369 14.5595C174.87 14.795 172.75 19.8751 182.911 26.9401Z" fill="var(--fill-0, #1F1F7A)"/>
<g id="Group_9">
<path id="Vector_26" d="M186.628 2.43114L185.619 7.14115" stroke="var(--stroke-0, #282D33)" stroke-width="1.5143"/>
<path id="Vector_27" d="M186.628 2.43114L185.619 7.14115" stroke="var(--stroke-0, #282D33)" stroke-width="1.5143"/>
<path id="Vector_28" d="M169.925 7.83086L173.508 11.0606" stroke="var(--stroke-0, #282D33)" stroke-width="1.5143"/>
<path id="Vector_29" d="M166.257 24.9888L170.85 23.5085" stroke="var(--stroke-0, #282D33)" stroke-width="1.5143"/>
<path id="Vector_30" d="M179.294 36.7469L180.287 32.0369" stroke="var(--stroke-0, #282D33)" stroke-width="1.5143"/>
<path id="Vector_31" d="M195.981 31.3475L192.398 28.1178" stroke="var(--stroke-0, #282D33)" stroke-width="1.5143"/>
<path id="Vector_32" d="M199.648 14.1896L195.073 15.6699" stroke="var(--stroke-0, #282D33)" stroke-width="1.5143"/>
</g>
<path id="Vector_33" d="M172.515 73.4012C172.515 73.4012 185.047 69.2127 183.97 65.4447C182.641 60.7515 175.105 63.527 174.399 66.8072C173.692 70.0874 179.193 62.6355 175.24 60.516C172.145 58.8507 167.654 62.0299 172.515 73.4012Z" fill="var(--fill-0, #1F1F7A)"/>
<g id="Group_10">
<g id="Group_11">
<path id="Vector_34" d="M69.4331 102.3L35.1341 145.212L83.5227 141.269L113.438 95.336L69.4331 102.3Z" fill="var(--fill-0, #1F1F7A)"/>
<path id="Vector_35" d="M107.937 88.726L74.8328 127.684L34.5958 137.088" stroke="var(--stroke-0, #FE9C72)" stroke-width="1.5143"/>
<g id="Group_12">
<path id="Vector_36" d="M57.4057 96.7998C55.774 93.856 57.0693 90.7272 60.299 89.7852C63.4615 88.8601 67.3136 90.4245 68.9957 93.2673L72.0236 98.7343L66.0183 100.467V100.45C62.8222 101.291 59.0038 99.6763 57.4057 96.7998Z" stroke="var(--stroke-0, #282D33)" stroke-width="1.5143"/>
<path id="Vector_37" d="M77.928 85.2436C76.2626 82.3335 72.8983 81.7952 70.4256 84.0829C68.0033 86.3034 67.3304 90.4078 68.878 93.3179L71.9732 98.7512L76.5822 94.5122V94.4954C78.9541 92.2077 79.5596 88.1033 77.928 85.2436Z" stroke="var(--stroke-0, #282D33)" stroke-width="1.5143"/>
</g>
<path id="Vector_38" d="M69.433 102.301L65.4295 93.402L110.646 86.051L113.438 95.3365L69.433 102.301Z" fill="var(--fill-0, #FE9C72)"/>
<path id="Vector_39" d="M69.4333 102.3L35.1343 145.212L32.4765 136.717L65.4297 93.4015L69.4333 102.3Z" fill="var(--fill-0, #FE9C72)"/>
</g>
<path id="Vector_40" d="M140.336 114.546L82.5372 107.246L134.482 97.0352L185.67 102.233L140.336 114.546Z" fill="var(--fill-0, #1F1F7A)"/>
<path id="Vector_41" d="M140.336 114.546L139.108 158.198L183.617 138.265L185.669 102.233L140.336 114.546Z" fill="var(--fill-0, #FE9C72)"/>
<path id="Vector_42" d="M140.336 114.546L139.108 158.198L82.0155 144.522L82.537 107.246L140.336 114.546Z" fill="var(--fill-0, #FE9C72)"/>
<path id="Vector_43" d="M139.108 158.198L140.336 114.547" stroke="var(--stroke-0, #080717)" stroke-width="1.5143" stroke-miterlimit="10"/>
</g>
<g id="Group_13">
<path id="Vector_44" d="M168.024 117.894C169.185 115.808 171.371 115.438 175.358 114.748C176.838 114.496 178.79 114.462 180.657 114.53C178.47 114.008 175.392 113.672 173.911 113.588C172.246 113.503 170.362 111.973 170.345 110.055C170.328 109.365 170.614 108.726 171.17 108.221C172.297 107.179 174.399 106.724 177.293 106.926C181.7 107.229 187.453 108.911 190.952 110.947C194.585 113.049 196.805 121.241 196.604 127.583C196.402 134.177 189.101 136.095 189.034 136.111C189 136.128 188.95 136.128 188.916 136.128C188.714 136.128 188.529 135.994 188.479 135.792L187.789 133.319C185.838 132.528 181.33 132.226 178.941 132.36C176.081 132.528 174.567 131.368 174.332 130.14C173.996 128.491 175.56 127.482 176.99 126.826C175.207 126.708 173.491 126.54 172.784 126.288C171.775 125.934 170.463 125.077 170.059 123.798C169.891 123.243 169.841 122.402 170.48 121.393C169.487 121.107 168.545 120.383 168.108 119.542C167.788 118.954 167.772 118.365 168.024 117.894Z" fill="var(--fill-0, #7E7EFF)"/>
<g id="Group_14">
<path id="Vector_45" d="M186.998 115.488C186.998 115.488 179.462 114.496 175.442 115.185C171.438 115.875 169.47 116.245 168.427 118.112C167.822 119.206 169.454 120.888 171.068 121.09" stroke="var(--stroke-0, #1F1F7A)" stroke-width="1.5143" stroke-miterlimit="10" stroke-linecap="round" stroke-linejoin="round"/>
<path id="Vector_46" d="M187.503 120.131C187.503 120.131 172.683 119.122 171.001 121.41C169.319 123.697 171.523 125.379 172.936 125.867C174.349 126.355 180.287 126.54 180.875 126.557" stroke="var(--stroke-0, #1F1F7A)" stroke-width="1.5143" stroke-miterlimit="10" stroke-linecap="round" stroke-linejoin="round"/>
<path id="Vector_47" d="M187.301 127.062C187.301 127.062 180.388 125.918 177.713 127.011C175.156 128.054 174.567 129.064 174.769 130.056C174.988 131.149 176.468 132.058 178.907 131.906C181.346 131.772 186.208 132.091 188.159 132.983" stroke="var(--stroke-0, #1F1F7A)" stroke-width="1.5143" stroke-miterlimit="10" stroke-linecap="round" stroke-linejoin="round"/>
</g>
</g>
</g>
<defs>
<clipPath id="clip0_0_267">
<rect width="201" height="138" fill="white"/>
</clipPath>
</defs>
</svg>
