<svg width="16" height="16" viewBox="0 0 16 16" fill="none" xmlns="http://www.w3.org/2000/svg">
  <g transform="translate(1.77085, 1.5)">
    <path d="M4.62498 1.12667C4.68498 0.765333 4.99831 0.5 5.36498 0.5H7.09365C7.46031 0.5 7.77365 0.765333 7.83365 1.12667L7.97565 1.98067C8.01765 2.23 8.18431 2.438 8.40565 2.56067C8.45498 2.58733 8.50365 2.616 8.55231 2.64533C8.76898 2.776 9.03231 2.81667 9.26898 2.728L10.0803 2.424C10.2466 2.36147 10.4296 2.35999 10.5969 2.41981C10.7642 2.47963 10.9048 2.59688 10.9936 2.75067L11.8576 4.24867C11.9464 4.40247 11.9776 4.58275 11.9459 4.75744C11.9141 4.93213 11.8215 5.0899 11.6843 5.20267L11.0156 5.754C10.8203 5.91467 10.7236 6.16267 10.729 6.41533C10.7299 6.472 10.7299 6.52867 10.729 6.58533C10.7236 6.83733 10.8203 7.08533 11.0156 7.246L11.685 7.79733C11.9676 8.03067 12.041 8.434 11.8583 8.75067L10.993 10.2487C10.9042 10.4024 10.7638 10.5197 10.5967 10.5796C10.4295 10.6396 10.2466 10.6383 10.0803 10.576L9.26898 10.272C9.03231 10.1833 8.76898 10.224 8.55165 10.3547C8.50332 10.3841 8.45442 10.4125 8.40498 10.44C8.18431 10.562 8.01765 10.77 7.97565 11.0193L7.83365 11.8733C7.77365 12.2353 7.46031 12.5 7.09365 12.5H5.36431C4.99765 12.5 4.68498 12.2347 4.62431 11.8733L4.48231 11.0193C4.44098 10.77 4.27431 10.562 4.05298 10.4393C4.00355 10.4121 3.95465 10.3838 3.90631 10.3547C3.68965 10.224 3.42631 10.1833 3.18898 10.272L2.37765 10.576C2.21146 10.6383 2.02856 10.6397 1.86145 10.5799C1.69433 10.5201 1.55385 10.403 1.46498 10.2493L0.600312 8.75133C0.511608 8.59753 0.480344 8.41725 0.512084 8.24256C0.543823 8.06787 0.636507 7.9101 0.773646 7.79733L1.44298 7.246C1.63765 7.086 1.73431 6.83733 1.72965 6.58533C1.7286 6.52867 1.7286 6.472 1.72965 6.41533C1.73431 6.162 1.63765 5.91467 1.44298 5.754L0.773646 5.20267C0.636672 5.08993 0.544095 4.93229 0.512361 4.75775C0.480626 4.58321 0.511789 4.40307 0.600312 4.24933L1.46498 2.75133C1.55377 2.59742 1.69432 2.48004 1.86159 2.42009C2.02885 2.36014 2.21197 2.36153 2.37831 2.424L3.18898 2.728C3.42631 2.81667 3.68965 2.776 3.90631 2.64533C3.95431 2.616 4.00365 2.588 4.05298 2.56C4.27431 2.438 4.44098 2.23 4.48231 1.98067L4.62498 1.12667Z" stroke="#3A3943" stroke-linecap="round" stroke-linejoin="round"/>
    <path d="M8.22917 6.5C8.22917 7.03043 8.01845 7.53914 7.64338 7.91421C7.26831 8.28929 6.7596 8.5 6.22917 8.5C5.69873 8.5 5.19003 8.28929 4.81495 7.91421C4.43988 7.53914 4.22917 7.03043 4.22917 6.5C4.22917 5.96957 4.43988 5.46086 4.81495 5.08579C5.19003 4.71071 5.69873 4.5 6.22917 4.5C6.7596 4.5 7.26831 4.71071 7.64338 5.08579C8.01845 5.46086 8.22917 5.96957 8.22917 6.5Z" stroke="#3A3943" stroke-linecap="round" stroke-linejoin="round"/>
  </g>
</svg>
