<svg width="152" height="28" viewBox="0 0 152 28" fill="none" xmlns="http://www.w3.org/2000/svg">
<path d="M13.1821 3.72075C14.1522 3.72075 14.9385 2.88783 14.9385 1.86038C14.9385 0.832919 14.1522 0 13.1821 0C12.2121 0 11.4258 0.832919 11.4258 1.86038C11.4258 2.88783 12.2121 3.72075 13.1821 3.72075Z" fill="#4D4DFF" fill-opacity="0.898"/>
<path d="M21.2929 7.24556C22.2632 7.24556 23.0497 6.41245 23.0497 5.38474C23.0497 4.35704 22.2632 3.52393 21.2929 3.52393C20.3227 3.52393 19.5361 4.35704 19.5361 5.38474C19.5361 6.41245 20.3227 7.24556 21.2929 7.24556Z" fill="#4D4DFF" fill-opacity="0.898"/>
<path d="M5.09216 7.29869C6.06263 7.29869 6.84935 6.46538 6.84935 5.43743C6.84935 4.40949 6.06263 3.57617 5.09216 3.57617C4.12168 3.57617 3.33496 4.40949 3.33496 5.43743C3.33496 6.46538 4.12168 7.29869 5.09216 7.29869Z" fill="#4D4DFF" fill-opacity="0.898"/>
<path d="M10.5359 8.41087C11.2424 8.41087 11.815 7.80428 11.815 7.05602C11.815 6.30776 11.2424 5.70117 10.5359 5.70117C9.82951 5.70117 9.25684 6.30776 9.25684 7.05602C9.25684 7.80428 9.82951 8.41087 10.5359 8.41087Z" fill="#4D4DFF" fill-opacity="0.8"/>
<path d="M15.9529 8.43577C16.6594 8.43577 17.232 7.82919 17.232 7.08092C17.232 6.33266 16.6594 5.72607 15.9529 5.72607C15.2465 5.72607 14.6738 6.33266 14.6738 7.08092C14.6738 7.82919 15.2465 8.43577 15.9529 8.43577Z" fill="#4D4DFF" fill-opacity="0.8"/>
<path d="M6.68772 12.4508C7.39438 12.4508 7.96724 11.844 7.96724 11.0955C7.96724 10.347 7.39438 9.74023 6.68772 9.74023C5.98106 9.74023 5.4082 10.347 5.4082 11.0955C5.4082 11.844 5.98106 12.4508 6.68772 12.4508Z" fill="#4D4DFF" fill-opacity="0.8"/>
<path d="M19.7703 12.508C20.4767 12.508 21.0494 11.9015 21.0494 11.1532C21.0494 10.4049 20.4767 9.79834 19.7703 9.79834C19.0639 9.79834 18.4912 10.4049 18.4912 11.1532C18.4912 11.9015 19.0639 12.508 19.7703 12.508Z" fill="#4D4DFF" fill-opacity="0.8"/>
<path d="M13.2079 11.8737C13.7035 11.8737 14.1053 11.4481 14.1053 10.9232C14.1053 10.3982 13.7035 9.97266 13.2079 9.97266C12.7123 9.97266 12.3105 10.3982 12.3105 10.9232C12.3105 11.4481 12.7123 11.8737 13.2079 11.8737Z" fill="#4D4DFF" fill-opacity="0.6"/>
<path d="M22.9172 13.9783C22.9189 15.0207 23.7093 15.8642 24.6825 15.8624C25.6557 15.8606 26.4433 15.0141 26.4416 13.9718C26.4399 12.9295 25.6495 12.0859 24.6763 12.0877C23.703 12.0895 22.9155 12.936 22.9172 13.9783Z" fill="#4D4DFF" fill-opacity="0.898"/>
<path d="M1.75678 15.8881C2.72702 15.8881 3.51356 15.055 3.51356 14.0273C3.51356 12.9996 2.72702 12.1665 1.75678 12.1665C0.786538 12.1665 0 12.9996 0 14.0273C0 15.055 0.786538 15.8881 1.75678 15.8881Z" fill="#4D4DFF" fill-opacity="0.898"/>
<path d="M16.1227 14.9493C16.6208 14.9493 17.0246 14.5216 17.0246 13.994C17.0246 13.4663 16.6208 13.0386 16.1227 13.0386C15.6245 13.0386 15.2207 13.4663 15.2207 13.994C15.2207 14.5216 15.6245 14.9493 16.1227 14.9493Z" fill="#4D4DFF" fill-opacity="0.6"/>
<path d="M10.313 14.9568C10.8083 14.9568 11.2099 14.5314 11.2099 14.0067C11.2099 13.482 10.8083 13.0566 10.313 13.0566C9.8176 13.0566 9.41602 13.482 9.41602 14.0067C9.41602 14.5314 9.8176 14.9568 10.313 14.9568Z" fill="#4D4DFF" fill-opacity="0.6"/>
<path d="M6.66038 18.1896C7.36703 18.1896 7.93989 17.5828 7.93989 16.8343C7.93989 16.0858 7.36703 15.479 6.66038 15.479C5.95372 15.479 5.38086 16.0858 5.38086 16.8343C5.38086 17.5828 5.95372 18.1896 6.66038 18.1896Z" fill="#4D4DFF" fill-opacity="0.8"/>
<path d="M19.7471 18.2672C20.4575 18.2672 21.0333 17.6573 21.0333 16.9048C21.0333 16.1524 20.4575 15.5425 19.7471 15.5425C19.0368 15.5425 18.4609 16.1524 18.4609 16.9048C18.4609 17.6573 19.0368 18.2672 19.7471 18.2672Z" fill="#4D4DFF" fill-opacity="0.8"/>
<path d="M13.2205 18.0298C13.7165 18.0298 14.1187 17.6038 14.1187 17.0784C14.1187 16.5529 13.7165 16.127 13.2205 16.127C12.7244 16.127 12.3223 16.5529 12.3223 17.0784C12.3223 17.6038 12.7244 18.0298 13.2205 18.0298Z" fill="#4D4DFF" fill-opacity="0.6"/>
<path d="M10.4705 22.2688C11.1769 22.2688 11.7496 21.6622 11.7496 20.9139C11.7496 20.1657 11.1769 19.5591 10.4705 19.5591C9.76408 19.5591 9.19141 20.1657 9.19141 20.9139C9.19141 21.6622 9.76408 22.2688 10.4705 22.2688Z" fill="#4D4DFF" fill-opacity="0.8"/>
<path d="M15.8885 22.3025C16.5949 22.3025 17.1676 21.6959 17.1676 20.9476C17.1676 20.1994 16.5949 19.5928 15.8885 19.5928C15.182 19.5928 14.6094 20.1994 14.6094 20.9476C14.6094 21.6959 15.182 22.3025 15.8885 22.3025Z" fill="#4D4DFF" fill-opacity="0.8"/>
<path d="M21.3267 24.4405C22.2967 24.4405 23.083 23.6076 23.083 22.5801C23.083 21.5526 22.2967 20.7197 21.3267 20.7197C20.3567 20.7197 19.5703 21.5526 19.5703 22.5801C19.5703 23.6076 20.3567 24.4405 21.3267 24.4405Z" fill="#4D4DFF" fill-opacity="0.898"/>
<path d="M5.12592 24.4585C6.09616 24.4585 6.8827 23.6253 6.8827 22.5976C6.8827 21.5699 6.09616 20.7368 5.12592 20.7368C4.15568 20.7368 3.36914 21.5699 3.36914 22.5976C3.36914 23.6253 4.15568 24.4585 5.12592 24.4585Z" fill="#4D4DFF" fill-opacity="0.898"/>
<path d="M13.2285 28.0004C14.1987 28.0004 14.9852 27.1673 14.9852 26.1396C14.9852 25.1119 14.1987 24.2788 13.2285 24.2788C12.2582 24.2788 11.4717 25.1119 11.4717 26.1396C11.4717 27.1673 12.2582 28.0004 13.2285 28.0004Z" fill="#4D4DFF" fill-opacity="0.898"/>
<path d="M151.418 19.3233C150.415 21.9254 147.789 22.9758 145.211 22.9758C141.2 22.9758 138.837 20.5169 138.837 16.8167C138.837 12.9732 141.272 10.3472 145.402 10.3472C149.341 10.3472 151.752 13.1641 151.513 17.4612H142.418C142.68 19.3233 143.779 20.3498 145.545 20.3498C147.001 20.3498 148.076 19.8007 148.505 18.44L151.418 19.3233ZM142.513 15.2649H148.004C147.765 13.6177 146.715 12.8777 145.33 12.8777C143.874 12.8777 142.848 13.6893 142.513 15.2649Z" fill="#0B0B0C"/>
<path d="M128.688 18.6549C129.38 19.7291 130.526 20.5169 132.436 20.5169C133.892 20.5169 135.014 20.0633 135.014 19.2039C135.014 18.4639 134.178 18.2013 133.224 18.1058L130.359 17.8432C128.783 17.7 126.611 16.8405 126.635 14.2862C126.682 11.7557 128.998 10.3472 132.221 10.3472C134.393 10.3472 136.566 10.944 137.926 12.6867L135.897 14.3817C134.871 13.2358 133.582 12.8299 132.197 12.8299C130.789 12.8299 129.786 13.2358 129.786 13.9758C129.786 14.692 130.526 14.9546 131.385 15.0262L133.892 15.2649C135.587 15.432 138.141 16.0766 138.141 18.9175C138.141 21.5912 135.706 22.9997 132.364 22.9997C129.237 22.9997 127.351 21.9015 126.157 19.8246L128.688 18.6549Z" fill="#0B0B0C"/>
<path d="M116.09 22.9758C113.488 22.9758 111.841 21.4957 111.841 19.6336C111.841 17.7 113.345 16.8405 115.207 16.2915L120.435 14.7636C120.363 13.4984 119.337 12.9015 118.143 12.9015C116.902 12.9015 115.493 13.4267 114.658 15.432L111.865 14.3339C113.13 11.2782 115.637 10.3472 118.406 10.3472C122.058 10.3472 123.944 12.1376 123.944 15.1217V18.8458C123.944 19.7769 124.207 20.1827 124.947 20.1827C125.281 20.1827 125.711 20.1111 126.021 19.9679V22.4984C125.448 22.761 124.828 22.9519 123.801 22.9519C122.082 22.9519 121.056 22.0209 120.817 20.8989H120.721C119.814 22.2119 118.31 22.9758 116.09 22.9758ZM115.469 19.2517C115.469 19.8724 116.042 20.3259 117.093 20.3259C118.692 20.3259 120.077 19.5859 120.435 18.058V16.9122L116.782 18.1297C116.019 18.3923 115.469 18.631 115.469 19.2517Z" fill="#0B0B0C"/>
<path d="M111.079 18.2013C110.578 20.8511 108.501 22.9758 104.633 22.9758C100.718 22.9758 98.2354 20.4692 98.2354 16.8405C98.2354 12.8299 100.909 10.3472 104.776 10.3472C108.047 10.3472 110.41 12.0421 110.983 15.074L107.808 15.5992C107.426 13.9519 106.639 12.9732 104.967 12.9732C103.249 12.9732 101.912 14.1429 101.912 16.6973C101.912 19.2039 103.153 20.3498 104.991 20.3498C106.877 20.3498 107.474 19.1801 107.737 17.7954L111.079 18.2013Z" fill="#0B0B0C"/>
<path d="M94.5502 10.6338H98.0595L94.5263 22.7134H90.2531L87.8658 14.4295H87.8181L85.2876 22.7134H81.1576L77.6006 10.6338H81.3486L83.5688 19.3234H83.6165L86.2664 10.6338H89.6085L92.1868 19.3234H92.2584L94.5502 10.6338Z" fill="#0B0B0C"/>
<path d="M70.765 22.9997C66.7305 22.9997 64.1045 20.4931 64.1045 16.6734C64.1045 12.8538 66.7305 10.3472 70.765 10.3472C74.7995 10.3472 77.4254 12.8538 77.4254 16.6734C77.4254 20.4931 74.7995 22.9997 70.765 22.9997ZM67.7809 16.6734C67.7809 18.8936 68.8552 20.4214 70.765 20.4214C72.6748 20.4214 73.7491 18.8936 73.7491 16.6734C73.7491 14.4533 72.6748 12.9254 70.765 12.9254C68.8552 12.9254 67.7809 14.4533 67.7809 16.6734Z" fill="#0B0B0C"/>
<path d="M50.7266 5.28662H54.3075V12.0187H54.3313C55.0236 11.0161 56.2889 10.3476 58.0316 10.3476C61.0396 10.3476 62.7106 12.0426 62.7106 15.146V22.7137H59.1297V15.6474C59.1297 14.0956 58.3897 13.2123 56.9573 13.2123C55.4295 13.2123 54.3075 14.2389 54.3075 16.2442V22.7137H50.7266V5.28662Z" fill="#0B0B0C"/>
<path d="M36.951 17.4138C38.4072 19.2997 39.9828 19.9682 42.1313 19.9682C44.6857 19.9682 45.6167 18.9416 45.6167 17.748C45.6167 16.6021 44.8767 16.1485 42.6804 15.7905L39.6963 15.313C36.7122 14.8355 34.8502 13.4032 34.8502 10.4668C34.8502 6.98143 38.0014 5 41.7255 5C44.3515 5 47.1207 5.88329 48.8157 8.38992L46.3329 10.3475C45.0677 8.67639 43.3966 8.00796 41.7016 8.00796C39.7441 8.00796 38.3595 8.89125 38.3595 10.2042C38.3595 11.3979 39.0279 11.8276 40.9138 12.1141L43.6353 12.5438C46.8343 13.0451 49.126 14.1432 49.126 17.4138C49.126 20.9469 46.2613 23 42.0358 23C38.5743 23 36.5213 22.2838 34.4443 19.5623L36.951 17.4138Z" fill="#0B0B0C"/>
</svg>
