<svg width="150" height="24" viewBox="0 0 150 24" fill="none" xmlns="http://www.w3.org/2000/svg">
<path d="M0.00249946 6.99927V0.999896C0.00249946 0.449952 0.452452 0 1.0024 0H23.0001C23.5501 0 24 0.449952 24 0.999896V5.23945C24 5.50942 23.89 5.75939 23.71 5.94937L19.5205 10.139C19.2105 10.449 19.4304 10.9889 19.8704 10.9889H23.0001C23.5501 10.9889 24 11.4488 24 11.9987V22.9976C24 23.5475 23.5501 23.9975 23.0001 23.9975H17.0008C16.4508 23.9975 16.0008 23.5475 16.0008 22.9976V14.8584C16.0008 14.4085 15.4608 14.1885 15.1509 14.5085L5.95187 23.7075C5.56192 24.0975 4.93199 24.0975 4.54202 23.7075L0.292469 19.4579C-0.0974898 19.068 -0.0974898 18.438 0.292469 18.0481L9.49152 8.84907C9.80149 8.53911 9.5815 7.99916 9.14154 7.99916H1.0024C0.452452 7.99916 0.00249946 7.54921 0.00249946 6.99927Z" fill="#4D4DFF"/>
<path d="M148.973 17.3233C147.971 19.9254 145.345 20.9758 142.767 20.9758C138.756 20.9758 136.393 18.5169 136.393 14.8167C136.393 10.9732 138.828 8.34717 142.958 8.34717C146.897 8.34717 149.308 11.1641 149.069 15.4612H139.973C140.236 17.3233 141.334 18.3498 143.101 18.3498C144.557 18.3498 145.631 17.8007 146.061 16.44L148.973 17.3233ZM140.069 13.2649H145.56C145.321 11.6177 144.271 10.8777 142.886 10.8777C141.43 10.8777 140.403 11.6893 140.069 13.2649Z" fill="#0B0B0C"/>
<path d="M126.243 16.6549C126.936 17.7291 128.082 18.5169 129.991 18.5169C131.448 18.5169 132.57 18.0633 132.57 17.2039C132.57 16.4639 131.734 16.2013 130.779 16.1058L127.914 15.8432C126.339 15.7 124.166 14.8405 124.19 12.2862C124.238 9.75566 126.554 8.34717 129.777 8.34717C131.949 8.34717 134.121 8.94399 135.482 10.6867L133.453 12.3817C132.426 11.2358 131.137 10.8299 129.753 10.8299C128.344 10.8299 127.342 11.2358 127.342 11.9758C127.342 12.692 128.082 12.9546 128.941 13.0262L131.448 13.2649C133.143 13.432 135.697 14.0766 135.697 16.9175C135.697 19.5912 133.262 20.9997 129.92 20.9997C126.792 20.9997 124.907 19.9015 123.713 17.8246L126.243 16.6549Z" fill="#0B0B0C"/>
<path d="M113.646 20.9758C111.044 20.9758 109.396 19.4957 109.396 17.6336C109.396 15.7 110.9 14.8405 112.763 14.2915L117.991 12.7636C117.919 11.4984 116.893 10.9015 115.699 10.9015C114.457 10.9015 113.049 11.4267 112.213 13.432L109.42 12.3339C110.686 9.2782 113.192 8.34717 115.961 8.34717C119.614 8.34717 121.5 10.1376 121.5 13.1217V16.8458C121.5 17.7769 121.763 18.1827 122.503 18.1827C122.837 18.1827 123.267 18.1111 123.577 17.9679V20.4984C123.004 20.761 122.383 20.9519 121.357 20.9519C119.638 20.9519 118.611 20.0209 118.373 18.8989H118.277C117.37 20.2119 115.866 20.9758 113.646 20.9758ZM113.025 17.2517C113.025 17.8724 113.598 18.3259 114.648 18.3259C116.248 18.3259 117.633 17.5859 117.991 16.058V14.9122L114.338 16.1297C113.574 16.3923 113.025 16.631 113.025 17.2517Z" fill="#0B0B0C"/>
<path d="M108.635 16.2013C108.133 18.8511 106.056 20.9758 102.189 20.9758C98.2738 20.9758 95.791 18.4692 95.791 14.8405C95.791 10.8299 98.4648 8.34717 102.332 8.34717C105.603 8.34717 107.966 10.0421 108.539 13.074L105.364 13.5992C104.982 11.9519 104.194 10.9732 102.523 10.9732C100.804 10.9732 99.4674 12.1429 99.4674 14.6973C99.4674 17.2039 100.709 18.3498 102.547 18.3498C104.433 18.3498 105.03 17.1801 105.292 15.7954L108.635 16.2013Z" fill="#0B0B0C"/>
<path d="M92.1058 8.63379H95.6151L92.082 20.7134H87.8088L85.4215 12.4295H85.3738L82.8432 20.7134H78.7133L75.1562 8.63379H78.9043L81.1244 17.3234H81.1722L83.822 8.63379H87.1642L89.7425 17.3234H89.8141L92.1058 8.63379Z" fill="#0B0B0C"/>
<path d="M68.3206 20.9997C64.2862 20.9997 61.6602 18.4931 61.6602 14.6734C61.6602 10.8538 64.2862 8.34717 68.3206 8.34717C72.3551 8.34717 74.9811 10.8538 74.9811 14.6734C74.9811 18.4931 72.3551 20.9997 68.3206 20.9997ZM65.3365 14.6734C65.3365 16.8936 66.4108 18.4214 68.3206 18.4214C70.2304 18.4214 71.3047 16.8936 71.3047 14.6734C71.3047 12.4533 70.2304 10.9254 68.3206 10.9254C66.4108 10.9254 65.3365 12.4533 65.3365 14.6734Z" fill="#0B0B0C"/>
<path d="M48.2822 3.28662H51.8631V10.0187H51.887C52.5793 9.01606 53.8446 8.34763 55.5873 8.34763C58.5952 8.34763 60.2663 10.0426 60.2663 13.146V20.7137H56.6854V13.6474C56.6854 12.0956 55.9454 11.2123 54.513 11.2123C52.9851 11.2123 51.8631 12.2389 51.8631 14.2442V20.7137H48.2822V3.28662Z" fill="#0B0B0C"/>
<path d="M34.5066 15.4138C35.9629 17.2997 37.5385 17.9682 39.687 17.9682C42.2414 17.9682 43.1724 16.9416 43.1724 15.748C43.1724 14.6021 42.4324 14.1485 40.2361 13.7905L37.252 13.313C34.2679 12.8355 32.4058 11.4032 32.4058 8.46684C32.4058 4.98143 35.557 3 39.2812 3C41.9072 3 44.6764 3.88329 46.3714 6.38992L43.8886 8.34748C42.6233 6.67639 40.9523 6.00796 39.2573 6.00796C37.2997 6.00796 35.9151 6.89125 35.9151 8.20424C35.9151 9.39788 36.5836 9.82759 38.4695 10.1141L41.191 10.5438C44.3899 11.0451 46.6817 12.1432 46.6817 15.4138C46.6817 18.9469 43.817 21 39.5915 21C36.13 21 34.0769 20.2838 32 17.5623L34.5066 15.4138Z" fill="#0B0B0C"/>
</svg>
