<svg width="31" height="32" viewBox="0 0 31 32" fill="none" xmlns="http://www.w3.org/2000/svg">
<path d="M15.0649 4.25235C16.1735 4.25235 17.0722 3.30043 17.0722 2.12617C17.0722 0.95192 16.1735 0 15.0649 0C13.9563 0 13.0576 0.95192 13.0576 2.12617C13.0576 3.30043 13.9563 4.25235 15.0649 4.25235Z" fill="black"/>
<path d="M24.3349 8.2807C25.4438 8.2807 26.3427 7.32855 26.3427 6.15402C26.3427 4.97949 25.4438 4.02734 24.3349 4.02734C23.2261 4.02734 22.3271 4.97949 22.3271 6.15402C22.3271 7.32855 23.2261 8.2807 24.3349 8.2807Z" fill="black"/>
<path d="M5.81978 8.34128C6.9289 8.34128 7.82803 7.38891 7.82803 6.2141C7.82803 5.03929 6.9289 4.08691 5.81978 4.08691C4.71065 4.08691 3.81152 5.03929 3.81152 6.2141C3.81152 7.38891 4.71065 8.34128 5.81978 8.34128Z" fill="black"/>
<path d="M12.0409 9.61247C12.8483 9.61247 13.5028 8.91921 13.5028 8.06405C13.5028 7.20888 12.8483 6.51562 12.0409 6.51562C11.2336 6.51562 10.5791 7.20888 10.5791 8.06405C10.5791 8.91921 11.2336 9.61247 12.0409 9.61247Z" fill="black"/>
<path d="M18.2324 9.64079C19.0397 9.64079 19.6942 8.94753 19.6942 8.09237C19.6942 7.2372 19.0397 6.54395 18.2324 6.54395C17.425 6.54395 16.7705 7.2372 16.7705 8.09237C16.7705 8.94753 17.425 9.64079 18.2324 9.64079Z" fill="black"/>
<path d="M7.64299 14.2297C8.45061 14.2297 9.10531 13.5362 9.10531 12.6808C9.10531 11.8253 8.45061 11.1318 7.64299 11.1318C6.83537 11.1318 6.18066 11.8253 6.18066 12.6808C6.18066 13.5362 6.83537 14.2297 7.64299 14.2297Z" fill="black"/>
<path d="M22.5947 14.2951C23.402 14.2951 24.0565 13.6018 24.0565 12.7467C24.0565 11.8915 23.402 11.1982 22.5947 11.1982C21.7873 11.1982 21.1328 11.8915 21.1328 12.7467C21.1328 13.6018 21.7873 14.2951 22.5947 14.2951Z" fill="black"/>
<path d="M15.0949 13.5701C15.6613 13.5701 16.1205 13.0837 16.1205 12.4838C16.1205 11.8838 15.6613 11.3975 15.0949 11.3975C14.5285 11.3975 14.0693 11.8838 14.0693 12.4838C14.0693 13.0837 14.5285 13.5701 15.0949 13.5701Z" fill="black"/>
<path d="M26.1914 15.975C26.1934 17.1662 27.0967 18.1303 28.209 18.1282C29.3212 18.1262 30.2213 17.1588 30.2194 15.9675C30.2174 14.7763 29.3141 13.8122 28.2018 13.8143C27.0896 13.8163 26.1895 14.7837 26.1914 15.975Z" fill="black"/>
<path d="M2.00778 18.1577C3.11664 18.1577 4.01555 17.2055 4.01555 16.031C4.01555 14.8564 3.11664 13.9043 2.00778 13.9043C0.898913 13.9043 0 14.8564 0 16.031C0 17.2055 0.898913 18.1577 2.00778 18.1577Z" fill="black"/>
<path d="M18.4263 17.0851C18.9956 17.0851 19.4572 16.5963 19.4572 15.9932C19.4572 15.3902 18.9956 14.9014 18.4263 14.9014C17.857 14.9014 17.3955 15.3902 17.3955 15.9932C17.3955 16.5963 17.857 17.0851 18.4263 17.0851Z" fill="black"/>
<path d="M11.7858 17.0935C12.352 17.0935 12.811 16.6074 12.811 16.0077C12.811 15.408 12.352 14.9219 11.7858 14.9219C11.2197 14.9219 10.7607 15.408 10.7607 16.0077C10.7607 16.6074 11.2197 17.0935 11.7858 17.0935Z" fill="black"/>
<path d="M7.61174 20.7883C8.41936 20.7883 9.07406 20.0948 9.07406 19.2394C9.07406 18.3839 8.41936 17.6904 7.61174 17.6904C6.80412 17.6904 6.14941 18.3839 6.14941 19.2394C6.14941 20.0948 6.80412 20.7883 7.61174 20.7883Z" fill="black"/>
<path d="M22.5686 20.8767C23.3804 20.8767 24.0385 20.1796 24.0385 19.3197C24.0385 18.4598 23.3804 17.7627 22.5686 17.7627C21.7568 17.7627 21.0986 18.4598 21.0986 19.3197C21.0986 20.1796 21.7568 20.8767 22.5686 20.8767Z" fill="black"/>
<path d="M15.1095 20.6053C15.6765 20.6053 16.1361 20.1185 16.1361 19.518C16.1361 18.9175 15.6765 18.4307 15.1095 18.4307C14.5426 18.4307 14.083 18.9175 14.083 19.518C14.083 20.1185 14.5426 20.6053 15.1095 20.6053Z" fill="black"/>
<path d="M11.9667 25.4504C12.7741 25.4504 13.4286 24.7571 13.4286 23.9019C13.4286 23.0468 12.7741 22.3535 11.9667 22.3535C11.1594 22.3535 10.5049 23.0468 10.5049 23.9019C10.5049 24.7571 11.1594 25.4504 11.9667 25.4504Z" fill="black"/>
<path d="M18.1581 25.4884C18.9655 25.4884 19.62 24.7952 19.62 23.94C19.62 23.0849 18.9655 22.3916 18.1581 22.3916C17.3508 22.3916 16.6963 23.0849 16.6963 23.94C16.6963 24.7952 17.3508 25.4884 18.1581 25.4884Z" fill="black"/>
<path d="M24.3735 27.932C25.4821 27.932 26.3808 26.9801 26.3808 25.8059C26.3808 24.6316 25.4821 23.6797 24.3735 23.6797C23.2649 23.6797 22.3662 24.6316 22.3662 25.8059C22.3662 26.9801 23.2649 27.932 24.3735 27.932Z" fill="black"/>
<path d="M5.85836 27.9526C6.96722 27.9526 7.86614 27.0004 7.86614 25.8259C7.86614 24.6514 6.96722 23.6992 5.85836 23.6992C4.7495 23.6992 3.85059 24.6514 3.85059 25.8259C3.85059 27.0004 4.7495 27.9526 5.85836 27.9526Z" fill="black"/>
<path d="M15.1181 32.0004C16.227 32.0004 17.1259 31.0483 17.1259 29.8737C17.1259 28.6992 16.227 27.7471 15.1181 27.7471C14.0093 27.7471 13.1104 28.6992 13.1104 29.8737C13.1104 31.0483 14.0093 32.0004 15.1181 32.0004Z" fill="black"/>
</svg>
